<svg width="71" height="71" viewBox="0 0 71 71" fill="none" xmlns="http://www.w3.org/2000/svg">
<rect x="0.475281" y="0.509277" width="70.0905" height="70.0905" rx="9.95378" fill="white"/>
<path opacity="0.34" d="M6.25248 25.9769L6.25248 27.7118L7.46982 27.7118L7.46982 27.4858H6.5149L6.5149 25.9769H6.25248ZM8.19589 26.4216C8.01123 26.4216 7.86301 26.4847 7.7561 26.6135C7.64433 26.7399 7.59087 26.8954 7.59087 27.0825C7.59087 27.289 7.64918 27.4518 7.76582 27.5733C7.87273 27.6875 8.02094 27.7458 8.20561 27.7458C8.37327 27.7458 8.51177 27.6972 8.62111 27.6025C8.70858 27.5247 8.76447 27.4251 8.79362 27.3084H8.53606C8.50205 27.3813 8.4656 27.4372 8.42186 27.4712C8.36598 27.5125 8.29308 27.5344 8.20318 27.5344C8.10113 27.5344 8.02094 27.5004 7.96263 27.4372C7.90431 27.3716 7.87273 27.2769 7.86301 27.1554H8.81549C8.81306 26.9318 8.76204 26.7569 8.66484 26.6305C8.55793 26.4896 8.39999 26.4216 8.19589 26.4216ZM8.20318 26.633C8.40728 26.633 8.52148 26.7423 8.54578 26.961H7.86787C7.88245 26.8541 7.91889 26.7739 7.97235 26.718C8.03066 26.6597 8.10599 26.633 8.20318 26.633ZM9.59413 26.4216C9.39975 26.4216 9.2491 26.4872 9.13976 26.6184C9.0377 26.7399 8.98668 26.8954 8.98668 27.0849C8.98668 27.2793 9.0377 27.4348 9.14219 27.5563C9.2491 27.6826 9.39732 27.7458 9.58927 27.7458C9.74964 27.7458 9.88085 27.7045 9.97804 27.6243C10.0752 27.5417 10.1408 27.4154 10.17 27.2477H9.91486C9.89057 27.4372 9.78365 27.5344 9.5917 27.5344C9.47993 27.5344 9.39732 27.4931 9.34143 27.4154C9.28068 27.3352 9.25153 27.2234 9.25153 27.0825C9.25153 26.9415 9.28068 26.8298 9.34386 26.752C9.4046 26.6718 9.48722 26.633 9.59413 26.633C9.6816 26.633 9.75207 26.6524 9.80552 26.6937C9.85898 26.7326 9.893 26.7958 9.91 26.8808H10.1651C10.1408 26.7253 10.0777 26.6087 9.98047 26.5309C9.88328 26.458 9.7545 26.4216 9.59413 26.4216Z" fill="#2F3538"/>
<rect opacity="0.3" x="16.9229" y="25.4597" width="48.0354" height="1.86908" rx="0.93454" fill="#C4C4C4"/>
<rect x="16.9229" y="25.4597" width="41.6805" height="1.86908" rx="0.93454" fill="#CB5B66"/>
<path opacity="0.34" d="M7.00572 34.9168C6.72873 34.9168 6.51976 35.0067 6.37397 35.1914C6.24276 35.3542 6.17959 35.5632 6.17959 35.8207C6.17959 36.0831 6.24033 36.2921 6.36668 36.4476C6.51004 36.6274 6.72387 36.7197 7.00815 36.7197C7.19525 36.7197 7.35562 36.6663 7.48925 36.5594C7.63261 36.4452 7.72252 36.2872 7.76139 36.0856H7.50383C7.46982 36.2216 7.40907 36.3237 7.3216 36.3917C7.23898 36.4549 7.13207 36.4865 7.00572 36.4865C6.81134 36.4865 6.66798 36.4257 6.57565 36.3043C6.48817 36.19 6.44444 36.0297 6.44444 35.8207C6.44444 35.619 6.48817 35.4587 6.57808 35.342C6.67284 35.2133 6.81377 35.1501 7.00086 35.1501C7.12721 35.1501 7.22927 35.1768 7.31188 35.2327C7.39449 35.2886 7.45038 35.3761 7.47954 35.4927H7.73709C7.71037 35.3177 7.63261 35.1768 7.50626 35.0748C7.37505 34.9679 7.2074 34.9168 7.00572 34.9168ZM8.00545 35.4295V36.2119C8.00545 36.5497 8.1561 36.7197 8.45983 36.7197C8.61777 36.7197 8.74898 36.6517 8.85589 36.5156V36.6857H9.11345L9.11345 35.4295H8.85589V36.1973C8.83402 36.2897 8.79271 36.365 8.7344 36.4209C8.67608 36.4743 8.61534 36.5035 8.5473 36.5035C8.44768 36.5035 8.37479 36.4768 8.33105 36.4282C8.28488 36.3796 8.26301 36.3018 8.26301 36.1949V35.4295L8.00545 35.4295ZM9.99097 35.3955C9.91321 35.3955 9.84518 35.4174 9.78686 35.466C9.73827 35.5 9.69696 35.551 9.66537 35.619V35.4295H9.40781L9.40781 36.6857H9.66537L9.66537 36.02C9.66537 35.9106 9.69696 35.8207 9.76256 35.7527C9.82331 35.6895 9.89377 35.6579 9.97153 35.6579C10.0298 35.6579 10.0906 35.6652 10.1538 35.6847V35.4271C10.11 35.4052 10.0541 35.3955 9.99097 35.3955ZM10.7808 35.3955C10.6302 35.3955 10.5063 35.4271 10.4115 35.4927C10.3167 35.5559 10.2706 35.6458 10.2706 35.76C10.2706 35.8669 10.3192 35.9519 10.4164 36.0127C10.4747 36.0516 10.5791 36.088 10.7274 36.122C10.8561 36.1512 10.9412 36.1755 10.9801 36.1949C11.053 36.2289 11.0918 36.2775 11.0918 36.3383C11.0918 36.45 10.9898 36.5084 10.7905 36.5084C10.6934 36.5084 10.6253 36.4913 10.5816 36.4598C10.5378 36.4257 10.5063 36.365 10.4917 36.28L10.239 36.28C10.2681 36.5715 10.4528 36.7197 10.7978 36.7197C11.1696 36.7197 11.3567 36.5861 11.3567 36.3213C11.3567 36.2095 11.3057 36.122 11.206 36.0588C11.138 36.0151 11.0311 35.9738 10.8877 35.9398C10.7614 35.9082 10.6788 35.8839 10.635 35.8645C10.567 35.8329 10.533 35.7964 10.533 35.7527C10.533 35.7041 10.5549 35.6652 10.601 35.6409C10.6399 35.6166 10.6982 35.6069 10.776 35.6069C10.8634 35.6069 10.9315 35.6215 10.9752 35.6506C11.0165 35.6774 11.0457 35.7235 11.0651 35.7916H11.3154C11.2862 35.5267 11.1064 35.3955 10.7808 35.3955ZM11.5742 35.4295V36.2119C11.5742 36.5497 11.7249 36.7197 12.0286 36.7197C12.1865 36.7197 12.3178 36.6517 12.4247 36.5156L12.4247 36.6857H12.6822L12.6822 35.4295H12.4247V36.1973C12.4028 36.2897 12.3615 36.365 12.3032 36.4209C12.2449 36.4743 12.1841 36.5035 12.1161 36.5035C12.0165 36.5035 11.9436 36.4768 11.8998 36.4282C11.8537 36.3796 11.8318 36.3018 11.8318 36.1949V35.4295H11.5742ZM13.4455 35.3955C13.2949 35.3955 13.171 35.4271 13.0762 35.4927C12.9814 35.5559 12.9353 35.6458 12.9353 35.76C12.9353 35.8669 12.9839 35.9519 13.0811 36.0127C13.1394 36.0516 13.2439 36.088 13.3921 36.122C13.5209 36.1512 13.6059 36.1755 13.6448 36.1949C13.7177 36.2289 13.7566 36.2775 13.7566 36.3383C13.7566 36.45 13.6545 36.5084 13.4553 36.5084C13.3581 36.5084 13.29 36.4913 13.2463 36.4598C13.2026 36.4257 13.171 36.365 13.1564 36.28H12.9037C12.9329 36.5715 13.1175 36.7197 13.4625 36.7197C13.8343 36.7197 14.0214 36.5861 14.0214 36.3213C14.0214 36.2095 13.9704 36.122 13.8708 36.0588C13.8027 36.0151 13.6958 35.9738 13.5525 35.9398C13.4261 35.9082 13.3435 35.8839 13.2998 35.8645C13.2317 35.8329 13.1977 35.7964 13.1977 35.7527C13.1977 35.7041 13.2196 35.6652 13.2657 35.6409C13.3046 35.6166 13.3629 35.6069 13.4407 35.6069C13.5282 35.6069 13.5962 35.6215 13.6399 35.6506C13.6812 35.6774 13.7104 35.7235 13.7298 35.7916H13.9801C13.9509 35.5267 13.7711 35.3955 13.4455 35.3955Z" fill="#2F3538"/>
<rect opacity="0.3" x="16.9229" y="34.431" width="48.0354" height="1.86908" rx="0.93454" fill="#C4C4C4"/>
<rect x="16.9229" y="34.431" width="41.6805" height="1.86908" rx="0.93454" fill="#00A0E9"/>
<path d="M6.25248 43.9209L6.25248 45.6558H6.53677L6.53677 44.4604H6.54649L7.05675 45.6558H7.30216L7.81242 44.4604H7.82214L7.82214 45.6558H8.10642L8.10642 43.9209H7.77354L7.18553 45.2816H7.17581L6.58537 43.9209H6.25248ZM9.00623 44.3656C8.81428 44.3656 8.6612 44.4263 8.547 44.5527C8.43037 44.6766 8.37448 44.8345 8.37448 45.0289C8.37448 45.2209 8.43037 45.3788 8.54457 45.5003C8.6612 45.6267 8.81428 45.6898 9.00623 45.6898C9.19576 45.6898 9.35126 45.6267 9.46789 45.5003C9.57966 45.3788 9.63798 45.2209 9.63798 45.0289C9.63798 44.8345 9.57966 44.6766 9.46546 44.5527C9.34883 44.4263 9.19576 44.3656 9.00623 44.3656ZM9.00623 44.5916C9.12043 44.5916 9.21033 44.6353 9.27351 44.7276C9.32696 44.8054 9.35612 44.9074 9.35612 45.0289C9.35612 45.148 9.32696 45.2476 9.27351 45.3278C9.21033 45.4177 9.12043 45.4639 9.00623 45.4639C8.8896 45.4639 8.80213 45.4177 8.73895 45.3278C8.6855 45.25 8.65877 45.1504 8.65877 45.0289C8.65877 44.9074 8.6855 44.8054 8.73895 44.7276C8.80213 44.6353 8.8896 44.5916 9.00623 44.5916ZM9.90431 43.8869L9.90431 45.6558H10.1813L10.1813 43.8869H9.90431ZM11.0315 44.3656C10.8444 44.3656 10.6962 44.4288 10.5893 44.5576C10.4775 44.6839 10.4241 44.8394 10.4241 45.0265C10.4241 45.2355 10.4824 45.3983 10.599 45.5173C10.7083 45.6315 10.8566 45.6898 11.0437 45.6898C11.2113 45.6898 11.3498 45.6412 11.4616 45.5465C11.5491 45.4687 11.6074 45.3691 11.6365 45.2525H11.3595C11.3255 45.3229 11.2891 45.374 11.2478 45.4056C11.1943 45.4444 11.1263 45.4639 11.0412 45.4639C10.9416 45.4639 10.8639 45.4323 10.8104 45.3715C10.7569 45.3108 10.7254 45.2209 10.7156 45.1043H11.656C11.656 44.8783 11.6049 44.7009 11.5053 44.5746C11.396 44.4336 11.238 44.3656 11.0315 44.3656ZM11.0388 44.5916C11.2332 44.5916 11.3425 44.6912 11.3668 44.8953H10.7205C10.7375 44.7957 10.7715 44.7203 10.8225 44.6693C10.876 44.6159 10.9465 44.5916 11.0388 44.5916Z" fill="#2F3538"/>
<rect opacity="0.3" x="16.9229" y="43.4024" width="48.0354" height="1.86908" rx="0.93454" fill="#C4C4C4"/>
<rect x="16.9229" y="43.4024" width="28.2231" height="1.86908" rx="0.93454" fill="#950AEF"/>
<path opacity="0.34" d="M6.85993 52.857C6.67527 52.857 6.52219 52.8983 6.4007 52.9809C6.27192 53.0683 6.20875 53.1874 6.20875 53.3405C6.20875 53.4911 6.27435 53.6078 6.40799 53.6879C6.46145 53.7171 6.59266 53.7633 6.80648 53.8313C6.99843 53.8896 7.11263 53.9285 7.15151 53.9479C7.26085 54.0038 7.31674 54.0791 7.31674 54.1763C7.31674 54.2541 7.27786 54.3148 7.20011 54.3586C7.12235 54.4023 7.01787 54.4266 6.88666 54.4266C6.74087 54.4266 6.63396 54.3999 6.5635 54.3464C6.48575 54.2881 6.43715 54.1885 6.41771 54.0524H6.15529C6.16987 54.2711 6.24762 54.4315 6.39098 54.5335C6.51004 54.6161 6.67527 54.6599 6.88666 54.6599C7.10535 54.6599 7.27543 54.6161 7.39692 54.5287C7.51841 54.4388 7.57916 54.3173 7.57916 54.1618C7.57916 54.0014 7.50383 53.8775 7.35562 53.7876C7.28758 53.7463 7.1345 53.6904 6.90124 53.6175C6.73844 53.5689 6.63882 53.5324 6.59995 53.5106C6.51247 53.4644 6.47117 53.4037 6.47117 53.3259C6.47117 53.2384 6.50761 53.1753 6.58294 53.1364C6.64368 53.1024 6.73116 53.0854 6.84536 53.0854C6.97657 53.0854 7.07376 53.1097 7.14179 53.1607C7.20983 53.2093 7.25356 53.2919 7.27786 53.4037H7.54028C7.52327 53.2141 7.45524 53.0756 7.33375 52.9857C7.21955 52.8983 7.06161 52.857 6.85993 52.857ZM8.33352 53.3356C8.14885 53.3356 8.00063 53.3988 7.89372 53.5276C7.78195 53.6539 7.7285 53.8094 7.7285 53.9965C7.7285 54.2031 7.78681 54.3659 7.90344 54.4874C8.01035 54.6016 8.15857 54.6599 8.34324 54.6599C8.51089 54.6599 8.64939 54.6113 8.75873 54.5165C8.84621 54.4388 8.90209 54.3391 8.93125 54.2225H8.67369C8.63967 54.2954 8.60322 54.3513 8.55949 54.3853C8.5036 54.4266 8.43071 54.4485 8.34081 54.4485C8.23875 54.4485 8.15857 54.4145 8.10026 54.3513C8.04194 54.2857 8.01035 54.1909 8.00063 54.0694H8.95312C8.95069 53.8459 8.89966 53.6709 8.80247 53.5446C8.69556 53.4037 8.53762 53.3356 8.33352 53.3356ZM8.34081 53.547C8.54491 53.547 8.65911 53.6564 8.68341 53.875L8.00549 53.875C8.02007 53.7681 8.05652 53.6879 8.10997 53.6321C8.16829 53.5737 8.24361 53.547 8.34081 53.547ZM10.0768 52.857L10.0768 53.5567C9.97474 53.4085 9.84596 53.3356 9.69288 53.3356C9.51307 53.3356 9.36971 53.4012 9.26766 53.5324C9.17047 53.6539 9.1243 53.807 9.1243 53.9917C9.1243 54.1836 9.1729 54.3416 9.27009 54.4631C9.37457 54.5943 9.52036 54.6599 9.70503 54.6599C9.87511 54.6599 10.0063 54.5967 10.0938 54.4752V54.6259H10.3343L10.3343 52.857H10.0768ZM9.75119 53.5446C9.84596 53.5446 9.92371 53.581 9.98688 53.6588C10.0501 53.7414 10.0841 53.8507 10.0841 53.9868V54.0087C10.0841 54.135 10.0573 54.2371 10.0039 54.3173C9.94072 54.4047 9.85568 54.4509 9.7439 54.4509C9.61755 54.4509 9.52279 54.4047 9.46448 54.3148C9.41345 54.2371 9.38915 54.1302 9.38915 53.9917C9.38915 53.8532 9.41588 53.7463 9.46934 53.6734C9.53008 53.5859 9.62484 53.5446 9.75119 53.5446Z" fill="#2F3538"/>
<rect opacity="0.3" x="16.9229" y="52.3737" width="48.0354" height="1.86908" rx="0.93454" fill="#C4C4C4"/>
<rect x="16.9229" y="52.3737" width="18.8777" height="1.86908" rx="0.93454" fill="#CB5B66"/>
<path opacity="0.34" d="M6.25248 61.865L6.25248 63.5999H7.54028L7.54028 63.3739H6.51733L6.51733 62.8223H7.44066V62.5963H6.51733L6.51733 62.0909H7.49897L7.49897 61.865H6.25248ZM7.81394 61.831L7.81394 63.5999H8.0715L8.0715 61.831H7.81394ZM8.57447 61.8407C8.52344 61.8407 8.48213 61.8553 8.44812 61.8893C8.4141 61.9209 8.39709 61.9622 8.39709 62.0132C8.39709 62.0618 8.4141 62.1055 8.44812 62.1395C8.48213 62.1711 8.52344 62.1881 8.57447 62.1881C8.62306 62.1881 8.6668 62.1711 8.70082 62.1395C8.73483 62.1055 8.75427 62.0642 8.75427 62.0132C8.75427 61.9622 8.73726 61.9209 8.70325 61.8893C8.66923 61.8553 8.62549 61.8407 8.57447 61.8407ZM8.44569 62.3436L8.44569 63.5999H8.70325L8.70325 62.3436H8.44569ZM9.43336 61.9379L9.1758 62.0448L9.1758 62.3436H8.94254V62.5575H9.1758L9.1758 63.2864C9.1758 63.386 9.19767 63.4614 9.24627 63.5148C9.29486 63.5707 9.37505 63.5999 9.48196 63.5999H9.68849V63.386H9.52327C9.49168 63.386 9.46981 63.3763 9.45523 63.3617C9.44065 63.3447 9.43336 63.3204 9.43336 63.2864V62.5575H9.72008V62.3436H9.43336L9.43336 61.9379Z" fill="#2F3538"/>
<rect opacity="0.3" x="16.9229" y="61.3471" width="48.0354" height="1.86908" rx="0.93454" fill="#C4C4C4"/>
<rect x="16.9229" y="61.3471" width="29.9053" height="1.86908" rx="0.93454" fill="#F39800"/>
<path opacity="0.3" d="M4.22279 10.5769L4.70127 11.9114H4.94799L5.42647 10.5769H5.20592L4.82837 11.6833H4.82276L4.44334 10.5769H4.22279ZM5.6887 10.5582C5.64945 10.5582 5.61767 10.5694 5.59151 10.5955C5.56534 10.6198 5.55226 10.6516 5.55226 10.6909C5.55226 10.7282 5.56534 10.7619 5.59151 10.7881C5.61767 10.8124 5.64945 10.8254 5.6887 10.8254C5.72608 10.8254 5.75972 10.8124 5.78589 10.7881C5.81206 10.7619 5.82701 10.7301 5.82701 10.6909C5.82701 10.6516 5.81393 10.6198 5.78776 10.5955C5.76159 10.5694 5.72795 10.5582 5.6887 10.5582ZM5.58964 10.9451V11.9114H5.78776V10.9451H5.58964ZM5.95315 10.9451L6.31201 11.9114H6.51013L6.86899 10.9451H6.65405L6.41107 11.6647L6.16809 10.9451H5.95315ZM7.39981 10.9189C7.25776 10.9189 7.14375 10.9675 7.06151 11.0666C6.97553 11.1637 6.93441 11.2834 6.93441 11.4273C6.93441 11.5862 6.97927 11.7114 7.06899 11.8048C7.15123 11.8927 7.26524 11.9375 7.40729 11.9375C7.53626 11.9375 7.64279 11.9002 7.7269 11.8273C7.79419 11.7675 7.83718 11.6908 7.85961 11.6011H7.66148C7.63532 11.6572 7.60728 11.7002 7.57364 11.7263C7.53065 11.7581 7.47458 11.7749 7.40542 11.7749C7.32692 11.7749 7.26524 11.7488 7.22038 11.7002C7.17552 11.6497 7.15123 11.5768 7.14375 11.4834H7.87643C7.87456 11.3114 7.83531 11.1768 7.76055 11.0796C7.67831 10.9712 7.55682 10.9189 7.39981 10.9189ZM7.40542 11.0815C7.56242 11.0815 7.65027 11.1656 7.66896 11.3338H7.14749C7.1587 11.2516 7.18674 11.1899 7.22786 11.1469C7.27272 11.1021 7.33066 11.0815 7.40542 11.0815ZM8.49407 10.9189C8.43426 10.9189 8.38193 10.9357 8.33707 10.9731C8.29969 10.9993 8.26791 11.0385 8.24362 11.0909V10.9451H8.04549V11.9114H8.24362V11.3992C8.24362 11.3151 8.26791 11.246 8.31838 11.1937C8.36511 11.1451 8.41931 11.1208 8.47912 11.1208C8.52398 11.1208 8.5707 11.1264 8.6193 11.1413V10.9432C8.58566 10.9264 8.54267 10.9189 8.49407 10.9189ZM9.1895 10.9189C9.12969 10.9189 9.07736 10.9357 9.0325 10.9731C8.99512 10.9993 8.96334 11.0385 8.93904 11.0909V10.9451H8.74092V11.9114H8.93904V11.3992C8.93904 11.3151 8.96334 11.246 9.01381 11.1937C9.06054 11.1451 9.11474 11.1208 9.17455 11.1208C9.21941 11.1208 9.26613 11.1264 9.31473 11.1413V10.9432C9.28109 10.9264 9.2381 10.9189 9.1895 10.9189ZM9.87185 10.9189C9.75223 10.9189 9.65503 10.9395 9.58401 10.9843C9.50177 11.0329 9.44944 11.1114 9.42888 11.2161L9.62513 11.2329C9.63634 11.1787 9.66438 11.1394 9.70924 11.1133C9.74662 11.0909 9.79708 11.0796 9.85876 11.0796C10.0046 11.0796 10.0774 11.1469 10.0774 11.2815V11.3207L9.86063 11.3264C9.71858 11.3301 9.60644 11.3581 9.52794 11.4142C9.44196 11.4721 9.39897 11.5563 9.39897 11.6647C9.39897 11.745 9.42888 11.8104 9.49056 11.8609C9.54663 11.9114 9.62513 11.9375 9.72606 11.9375C9.81204 11.9375 9.8868 11.9207 9.95035 11.8908C10.0064 11.8628 10.0531 11.8235 10.0905 11.7749V11.9114H10.2737V11.2946C10.2737 11.1768 10.2438 11.0871 10.1859 11.0254C10.1186 10.9544 10.0139 10.9189 9.87185 10.9189ZM10.0774 11.4647V11.5207C10.0774 11.5955 10.0457 11.6591 9.98586 11.7095C9.92605 11.76 9.85503 11.7861 9.77092 11.7861C9.72045 11.7861 9.67933 11.7731 9.64943 11.7488C9.61765 11.7245 9.6027 11.6946 9.6027 11.6572C9.6027 11.5376 9.69242 11.474 9.87372 11.4703L10.0774 11.4647ZM11.4164 10.6329L11.2182 10.7152V10.9451H11.0388V11.1095H11.2182V11.6703C11.2182 11.7469 11.235 11.8048 11.2724 11.846C11.3098 11.8889 11.3715 11.9114 11.4537 11.9114H11.6126V11.7469H11.4855C11.4612 11.7469 11.4444 11.7394 11.4332 11.7282C11.422 11.7151 11.4164 11.6964 11.4164 11.6703V11.1095H11.6369V10.9451H11.4164V10.6329ZM12.245 10.9189C12.1852 10.9189 12.1329 10.9357 12.088 10.9731C12.0506 10.9993 12.0189 11.0385 11.9946 11.0909V10.9451H11.7964V11.9114H11.9946V11.3992C11.9946 11.3151 12.0189 11.246 12.0693 11.1937C12.116 11.1451 12.1702 11.1208 12.2301 11.1208C12.2749 11.1208 12.3216 11.1264 12.3702 11.1413V10.9432C12.3366 10.9264 12.2936 10.9189 12.245 10.9189ZM12.632 10.5582C12.5928 10.5582 12.561 10.5694 12.5348 10.5955C12.5087 10.6198 12.4956 10.6516 12.4956 10.6909C12.4956 10.7282 12.5087 10.7619 12.5348 10.7881C12.561 10.8124 12.5928 10.8254 12.632 10.8254C12.6694 10.8254 12.7031 10.8124 12.7292 10.7881C12.7554 10.7619 12.7704 10.7301 12.7704 10.6909C12.7704 10.6516 12.7573 10.6198 12.7311 10.5955C12.7049 10.5694 12.6713 10.5582 12.632 10.5582ZM12.533 10.9451V11.9114H12.7311V10.9451H12.533ZM13.36 10.9189C13.2441 10.9189 13.1488 10.9432 13.0759 10.9937C13.003 11.0423 12.9675 11.1114 12.9675 11.1993C12.9675 11.2815 13.0049 11.3469 13.0797 11.3936C13.1245 11.4235 13.2049 11.4516 13.3189 11.4778C13.418 11.5002 13.4834 11.5189 13.5133 11.5338C13.5694 11.56 13.5993 11.5974 13.5993 11.6441C13.5993 11.7301 13.5208 11.7749 13.3675 11.7749C13.2927 11.7749 13.2404 11.7619 13.2068 11.7376C13.1731 11.7114 13.1488 11.6647 13.1376 11.5992H12.9432C12.9656 11.8235 13.1077 11.9375 13.3731 11.9375C13.6591 11.9375 13.803 11.8347 13.803 11.631C13.803 11.545 13.7637 11.4778 13.6871 11.4292C13.6348 11.3955 13.5525 11.3637 13.4423 11.3376C13.3451 11.3133 13.2815 11.2946 13.2479 11.2796C13.1955 11.2553 13.1694 11.2273 13.1694 11.1937C13.1694 11.1563 13.1862 11.1264 13.2217 11.1077C13.2516 11.089 13.2965 11.0815 13.3563 11.0815C13.4236 11.0815 13.4759 11.0927 13.5095 11.1151C13.5413 11.1357 13.5637 11.1712 13.5787 11.2236H13.7712C13.7488 11.0198 13.6105 10.9189 13.36 10.9189ZM14.2638 10.6329L14.0657 10.7152V10.9451H13.8862V11.1095H14.0657V11.6703C14.0657 11.7469 14.0825 11.8048 14.1199 11.846C14.1572 11.8889 14.2189 11.9114 14.3012 11.9114H14.46V11.7469H14.3329C14.3086 11.7469 14.2918 11.7394 14.2806 11.7282C14.2694 11.7151 14.2638 11.6964 14.2638 11.6703V11.1095H14.4843V10.9451H14.2638V10.6329ZM14.784 10.5582C14.7448 10.5582 14.713 10.5694 14.6868 10.5955C14.6607 10.6198 14.6476 10.6516 14.6476 10.6909C14.6476 10.7282 14.6607 10.7619 14.6868 10.7881C14.713 10.8124 14.7448 10.8254 14.784 10.8254C14.8214 10.8254 14.8551 10.8124 14.8812 10.7881C14.9074 10.7619 14.9224 10.7301 14.9224 10.6909C14.9224 10.6516 14.9093 10.6198 14.8831 10.5955C14.8569 10.5694 14.8233 10.5582 14.784 10.5582ZM14.685 10.9451V11.9114H14.8831V10.9451H14.685ZM15.5606 10.9189C15.4186 10.9189 15.3064 10.9694 15.226 11.0703C15.1513 11.1637 15.1139 11.2834 15.1139 11.4329C15.1139 11.5749 15.1494 11.6927 15.2242 11.7861C15.3027 11.8871 15.4111 11.9375 15.5513 11.9375C15.669 11.9375 15.7681 11.8815 15.8466 11.7693V12.2815H16.0447V10.9451H15.8597V11.0609C15.7924 10.9656 15.6914 10.9189 15.5606 10.9189ZM15.5905 11.0796C15.6765 11.0796 15.7419 11.1133 15.7905 11.1824C15.8316 11.2422 15.8522 11.3226 15.8522 11.4217V11.4385C15.8522 11.5413 15.826 11.6254 15.7774 11.689C15.7288 11.7469 15.669 11.7768 15.5961 11.7768C15.4989 11.7768 15.426 11.745 15.3812 11.6815C15.3382 11.6217 15.3176 11.5394 15.3176 11.4329C15.3176 11.3264 15.3363 11.2441 15.3756 11.1843C15.4204 11.1133 15.4933 11.0796 15.5905 11.0796ZM16.2684 10.9451V11.5469C16.2684 11.8067 16.3842 11.9375 16.6179 11.9375C16.7394 11.9375 16.8403 11.8852 16.9225 11.7805V11.9114H17.1207V10.9451H16.9225V11.5357C16.9057 11.6067 16.8739 11.6647 16.8291 11.7076C16.7842 11.7488 16.7375 11.7712 16.6852 11.7712C16.6085 11.7712 16.5525 11.7506 16.5188 11.7133C16.4833 11.6759 16.4665 11.6161 16.4665 11.5338V10.9451H16.2684ZM17.7564 10.9189C17.6144 10.9189 17.5004 10.9675 17.4181 11.0666C17.3321 11.1637 17.291 11.2834 17.291 11.4273C17.291 11.5862 17.3359 11.7114 17.4256 11.8048C17.5078 11.8927 17.6218 11.9375 17.7639 11.9375C17.8929 11.9375 17.9994 11.9002 18.0835 11.8273C18.1508 11.7675 18.1938 11.6908 18.2162 11.6011H18.0181C17.9919 11.6572 17.9639 11.7002 17.9302 11.7263C17.8873 11.7581 17.8312 11.7749 17.762 11.7749C17.6835 11.7749 17.6218 11.7488 17.577 11.7002C17.5321 11.6497 17.5078 11.5768 17.5004 11.4834H18.233C18.2312 11.3114 18.1919 11.1768 18.1172 11.0796C18.0349 10.9712 17.9134 10.9189 17.7564 10.9189ZM17.762 11.0815C17.919 11.0815 18.0069 11.1656 18.0256 11.3338H17.5041C17.5153 11.2516 17.5433 11.1899 17.5845 11.1469C17.6293 11.1021 17.6873 11.0815 17.762 11.0815Z" fill="black"/>
<path d="M4.44476 5.88685V8.24628H5.52203C5.77317 8.24628 5.96814 8.20001 6.10693 8.10749C6.26885 7.99513 6.35146 7.8233 6.35146 7.58537C6.35146 7.42676 6.31181 7.29788 6.2325 7.20205C6.15319 7.10622 6.03423 7.04343 5.87892 7.01369C5.99788 6.97073 6.0871 6.90464 6.15319 6.81873C6.21928 6.7262 6.25233 6.61385 6.25233 6.48167C6.25233 6.29992 6.18954 6.15782 6.06397 6.05208C5.93179 5.93972 5.75334 5.88685 5.52203 5.88685H4.44476ZM4.80495 6.18426H5.43281C5.59142 6.18426 5.71039 6.21069 5.78309 6.26687C5.85578 6.31974 5.89213 6.40566 5.89213 6.52462C5.89213 6.6502 5.85578 6.74272 5.78309 6.8022C5.71039 6.85838 5.59142 6.88812 5.4262 6.88812H4.80495V6.18426ZM4.80495 7.18222H5.48237C5.65421 7.18222 5.78309 7.21196 5.8657 7.27475C5.94831 7.33753 5.99127 7.43997 5.99127 7.57876C5.99127 7.71425 5.93509 7.81339 5.82935 7.87617C5.74343 7.92243 5.62447 7.94887 5.47246 7.94887H4.80495V7.18222ZM7.40403 6.49158C7.15288 6.49158 6.95131 6.5775 6.80591 6.75264C6.6539 6.92447 6.5812 7.13596 6.5812 7.39041C6.5812 7.67129 6.66051 7.89269 6.81913 8.05792C6.96453 8.21323 7.1661 8.29254 7.41725 8.29254C7.64526 8.29254 7.83361 8.22645 7.98232 8.09757C8.10128 7.99183 8.17728 7.85634 8.21694 7.69773H7.86666C7.8204 7.79686 7.77083 7.87287 7.71135 7.91913C7.63534 7.97531 7.53621 8.00505 7.41394 8.00505C7.27515 8.00505 7.1661 7.95878 7.08679 7.87287C7.00749 7.78364 6.96453 7.65477 6.95131 7.48954H8.24668C8.24337 7.18553 8.17398 6.9476 8.0418 6.77577C7.8964 6.58411 7.68161 6.49158 7.40403 6.49158ZM7.41394 6.77907C7.69152 6.77907 7.84683 6.92777 7.87988 7.22518H6.95792C6.97774 7.07978 7.02731 6.97073 7.10001 6.89473C7.17932 6.81542 7.28176 6.77907 7.41394 6.77907ZM9.31554 6.49158C9.10405 6.49158 8.93221 6.52793 8.80664 6.60724C8.66124 6.69315 8.56871 6.83194 8.53236 7.017L8.87934 7.04674C8.89917 6.95091 8.94873 6.88151 9.02804 6.83525C9.09413 6.79559 9.18335 6.77577 9.2924 6.77577C9.55016 6.77577 9.67903 6.89473 9.67903 7.13265V7.20205L9.29571 7.21196C9.04456 7.21857 8.84629 7.26814 8.7075 7.36728C8.5555 7.46972 8.47949 7.61842 8.47949 7.81008C8.47949 7.95217 8.53236 8.06783 8.64141 8.15705C8.74055 8.24628 8.87934 8.29254 9.05778 8.29254C9.20979 8.29254 9.34197 8.2628 9.45432 8.20993C9.55346 8.16036 9.63607 8.09096 9.70216 8.00505V8.24628H10.026V7.15579C10.026 6.9476 9.97313 6.78899 9.87069 6.67994C9.75173 6.55436 9.56668 6.49158 9.31554 6.49158ZM9.67903 7.4565V7.55563C9.67903 7.68781 9.62286 7.80017 9.51711 7.88939C9.41137 7.97861 9.28579 8.02487 9.13709 8.02487C9.04787 8.02487 8.97517 8.00174 8.9223 7.95878C8.86612 7.91583 8.83968 7.86295 8.83968 7.79686C8.83968 7.58537 8.9983 7.47302 9.31884 7.46641L9.67903 7.4565ZM11.22 6.49158C11.1143 6.49158 11.0218 6.52132 10.9425 6.58741C10.8764 6.63367 10.8202 6.70307 10.7772 6.79559V6.53784H10.427V8.24628H10.7772V7.34084C10.7772 7.19214 10.8202 7.06987 10.9094 6.97734C10.992 6.89143 11.0879 6.84847 11.1936 6.84847C11.2729 6.84847 11.3555 6.85838 11.4414 6.88482V6.53454C11.382 6.5048 11.306 6.49158 11.22 6.49158ZM12.8858 5.84059V6.79229C12.747 6.59071 12.5718 6.49158 12.3636 6.49158C12.1191 6.49158 11.9241 6.5808 11.7854 6.75924C11.6532 6.92447 11.5904 7.13265 11.5904 7.3838C11.5904 7.64485 11.6565 7.85965 11.7887 8.02487C11.9307 8.20332 12.129 8.29254 12.3802 8.29254C12.6115 8.29254 12.7899 8.20662 12.9089 8.0414V8.24628H13.236V5.84059H12.8858ZM12.4429 6.77577C12.5718 6.77577 12.6776 6.82534 12.7635 6.93108C12.8494 7.04343 12.8957 7.19214 12.8957 7.37719V7.40693C12.8957 7.57876 12.8593 7.71755 12.7866 7.8266C12.7007 7.94557 12.585 8.00835 12.433 8.00835C12.2612 8.00835 12.1323 7.94557 12.053 7.8233C11.9836 7.71755 11.9506 7.57216 11.9506 7.3838C11.9506 7.19544 11.9869 7.05004 12.0596 6.95091C12.1422 6.83194 12.2711 6.77577 12.4429 6.77577ZM14.6889 5.84059C14.3122 5.84059 14.028 5.96286 13.8297 6.214C13.6513 6.4354 13.5653 6.71959 13.5653 7.06987C13.5653 7.42676 13.648 7.71095 13.8198 7.92243C14.0148 8.16697 14.3056 8.29254 14.6922 8.29254C14.9466 8.29254 15.1647 8.21984 15.3465 8.07444C15.5414 7.91913 15.6637 7.70434 15.7166 7.43006H15.3663C15.32 7.61511 15.2374 7.7539 15.1185 7.84643C15.0061 7.93235 14.8607 7.97531 14.6889 7.97531C14.4245 7.97531 14.2296 7.89269 14.104 7.72747C13.985 7.57216 13.9255 7.35406 13.9255 7.06987C13.9255 6.79559 13.985 6.5775 14.1073 6.41888C14.2362 6.24374 14.4278 6.15782 14.6823 6.15782C14.8541 6.15782 14.9929 6.19417 15.1053 6.27018C15.2176 6.34618 15.2936 6.46514 15.3333 6.62376H15.6835C15.6472 6.38583 15.5414 6.19417 15.3696 6.05538C15.1912 5.90998 14.9632 5.84059 14.6889 5.84059ZM16.0485 5.84059V8.24628H16.3988V7.28797C16.3988 7.13926 16.4351 7.017 16.5111 6.92117C16.5838 6.82534 16.6797 6.77907 16.7986 6.77907C16.9308 6.77907 17.0333 6.81873 17.0993 6.90134C17.1588 6.98065 17.1919 7.093 17.1919 7.24501V8.24628H17.5422V7.18553C17.5422 6.96082 17.4926 6.78899 17.3934 6.67333C17.2877 6.55106 17.1324 6.49158 16.9275 6.49158C16.8185 6.49158 16.7226 6.51141 16.6367 6.55767C16.5409 6.60393 16.4616 6.67994 16.3988 6.77907V5.84059H16.0485ZM18.1874 5.85381C18.118 5.85381 18.0618 5.87363 18.0156 5.9199C17.9693 5.96286 17.9462 6.01903 17.9462 6.08843C17.9462 6.15452 17.9693 6.214 18.0156 6.26026C18.0618 6.30322 18.118 6.32635 18.1874 6.32635C18.2535 6.32635 18.313 6.30322 18.3592 6.26026C18.4055 6.214 18.4319 6.15782 18.4319 6.08843C18.4319 6.01903 18.4088 5.96286 18.3626 5.9199C18.3163 5.87363 18.2568 5.85381 18.1874 5.85381ZM18.0123 6.53784V8.24628H18.3626V6.53784H18.0123ZM19.5967 6.49158C19.3324 6.49158 19.1275 6.5808 18.9788 6.75924C18.84 6.92447 18.7706 7.13596 18.7706 7.39371C18.7706 7.65807 18.84 7.86956 18.9821 8.03479C19.1275 8.20662 19.3291 8.29254 19.5901 8.29254C19.8082 8.29254 19.9867 8.23636 20.1188 8.12731C20.251 8.01496 20.3403 7.84313 20.3799 7.61511H20.0329C19.9999 7.87287 19.8545 8.00505 19.5934 8.00505C19.4414 8.00505 19.3291 7.94887 19.2531 7.84313C19.1705 7.73408 19.1308 7.58207 19.1308 7.39041C19.1308 7.19875 19.1705 7.04674 19.2564 6.94099C19.339 6.83194 19.4513 6.77907 19.5967 6.77907C19.7157 6.77907 19.8115 6.80551 19.8842 6.86168C19.9569 6.91456 20.0032 7.00047 20.0263 7.11613H20.3733C20.3403 6.90464 20.2543 6.74603 20.1222 6.64028C19.99 6.54115 19.8148 6.49158 19.5967 6.49158ZM20.6794 5.84059V8.24628H21.0296V7.64816L21.2246 7.46641L21.8392 8.24628H22.2887L21.4658 7.2417L22.2226 6.53784H21.7698L21.0296 7.2417V5.84059H20.6794ZM23.2102 6.49158C22.9591 6.49158 22.7575 6.5775 22.6121 6.75264C22.4601 6.92447 22.3874 7.13596 22.3874 7.39041C22.3874 7.67129 22.4667 7.89269 22.6253 8.05792C22.7707 8.21323 22.9723 8.29254 23.2234 8.29254C23.4514 8.29254 23.6398 8.22645 23.7885 8.09757C23.9075 7.99183 23.9835 7.85634 24.0231 7.69773H23.6728C23.6266 7.79686 23.577 7.87287 23.5175 7.91913C23.4415 7.97531 23.3424 8.00505 23.2201 8.00505C23.0813 8.00505 22.9723 7.95878 22.893 7.87287C22.8137 7.78364 22.7707 7.65477 22.7575 7.48954H24.0529C24.0495 7.18553 23.9802 6.9476 23.848 6.77577C23.7026 6.58411 23.4878 6.49158 23.2102 6.49158ZM23.2201 6.77907C23.4977 6.77907 23.653 6.92777 23.686 7.22518H22.7641C22.7839 7.07978 22.8335 6.97073 22.9062 6.89473C22.9855 6.81542 23.0879 6.77907 23.2201 6.77907ZM25.2175 6.49158C25.1118 6.49158 25.016 6.51141 24.93 6.55767C24.8441 6.60063 24.7681 6.66341 24.702 6.74933V6.53784H24.3518V8.24628H24.702V7.21857C24.7153 7.07978 24.7648 6.97073 24.8441 6.89143C24.9168 6.81873 25.006 6.78568 25.1052 6.78568C25.3695 6.78568 25.505 6.93108 25.505 7.22188V8.24628H25.8553V7.19214C25.8553 6.72289 25.6405 6.49158 25.2175 6.49158Z" fill="black"/>
<rect x="0.475281" y="0.509277" width="70.0905" height="70.0905" rx="9.95378" stroke="#D8D8D8"/>
</svg>
