<svg width="283" height="283" viewBox="0 0 283 283" fill="none" xmlns="http://www.w3.org/2000/svg">
<g filter="url(#filter0_d)">
<rect x="21.3853" y="21.9819" width="231.966" height="231.966" rx="9" fill="white"/>
<line opacity="0.2" x1="33.7564" y1="109.33" x2="240.98" y2="109.33" stroke="#1D2125" stroke-width="0.371376" stroke-dasharray="1.49 2.23"/>
<line opacity="0.2" x1="33.7564" y1="128.193" x2="240.98" y2="128.193" stroke="#1D2125" stroke-width="0.371376" stroke-dasharray="1.49 2.23"/>
<line opacity="0.2" x1="33.7564" y1="147.061" x2="240.98" y2="147.061" stroke="#1D2125" stroke-width="0.371376" stroke-dasharray="1.49 2.23"/>
<line opacity="0.2" x1="33.7564" y1="165.929" x2="240.98" y2="165.929" stroke="#1D2125" stroke-width="0.371376" stroke-dasharray="1.49 2.23"/>
<line opacity="0.2" x1="33.7564" y1="184.791" x2="240.98" y2="184.791" stroke="#1D2125" stroke-width="0.371376" stroke-dasharray="1.49 2.23"/>
<line opacity="0.2" x1="33.7564" y1="203.665" x2="240.98" y2="203.665" stroke="#1D2125" stroke-width="0.371376" stroke-dasharray="1.49 2.23"/>
<line opacity="0.2" x1="33.7564" y1="222.527" x2="240.98" y2="222.527" stroke="#1D2125" stroke-width="0.371376" stroke-dasharray="1.49 2.23"/>
<line opacity="0.2" x1="33.7564" y1="241.395" x2="240.98" y2="241.395" stroke="#1D2125" stroke-width="0.371376" stroke-dasharray="1.49 2.23"/>
<path opacity="0.5" d="M240.98 176.348C235.824 173.434 230.798 170.72 225.493 170.72C221.355 170.72 217.386 172.372 213.392 174.035C210.407 175.277 207.407 176.526 204.314 177.094C197.598 178.422 190.366 175.766 183.65 172.048C176.418 168.33 169.186 163.284 162.47 155.847C160.865 154.197 159.285 152.428 157.719 150.675C152.231 144.532 146.917 138.584 141.29 138.584C137.222 138.584 132.964 142.191 128.631 145.861C125.812 148.249 122.961 150.663 120.111 152.129C115.935 154.441 111.56 154.391 107.233 154.342C104.601 154.312 101.987 154.283 99.4473 154.785C92.7719 155.765 86.5365 160.14 79.9288 164.776C79.3777 165.163 78.8241 165.551 78.2675 165.939C71.5519 170.72 64.3197 175.766 57.0876 178.422C50.372 180.812 43.1399 180.812 36.4243 174.438C35.5254 173.679 34.6344 172.821 33.7564 171.889" stroke="#ED9013" stroke-width="1.85573" stroke-linecap="round"/>
<path opacity="0.5" d="M240.98 175.445C240.529 175.38 240.079 175.303 239.632 175.211C235.55 174.436 231.592 172.731 227.653 171.035C222.384 168.765 217.147 166.51 211.686 166.51C204.366 166.51 197.447 170.564 190.313 174.743C188.148 176.012 185.963 177.292 183.741 178.474C174.88 183.55 165.338 187.176 156.477 183.55C147.769 180.572 139.629 171.857 131.02 162.641C130.195 161.758 129.366 160.871 128.532 159.984C127.822 159.228 127.116 158.473 126.413 157.721C117.667 148.367 109.419 139.545 100.587 137.868C96.5032 137.032 92.2749 138.045 88.0353 139.06C83.0755 140.248 78.1002 141.44 73.323 139.68C68.3958 137.808 63.4686 133.326 58.6353 128.929C54.1081 124.811 49.6632 120.768 45.3777 119.014C41.4191 117.661 37.5777 118.054 33.7564 119.444" stroke="#D4767F" stroke-width="1.85573" stroke-linecap="round"/>
<path opacity="0.5" d="M33.7564 157.511L39.5132 164.181C40.2273 164.975 41.0173 165.87 41.8755 166.843C47.9351 173.713 57.3894 184.431 67.4747 190.031C78.1659 196.702 89.6795 196.702 100.371 194.201C111.884 191.421 123.398 186.14 134.089 181.137C134.975 180.73 135.857 180.324 136.734 179.919C147.253 175.067 157.18 170.489 167.807 169.463C171.851 168.937 176.013 168.968 180.203 168.999C187.091 169.051 194.056 169.103 200.703 166.683C205.242 165.149 209.78 162.622 214.267 160.123C221.165 156.282 227.945 152.507 234.422 152.507C236.634 152.507 238.816 152.887 240.98 153.556" stroke="#A82CD0" stroke-width="1.85573" stroke-linecap="round"/>
<path opacity="0.3" d="M33.7873 55.6886L35.3709 60.1053H36.1874L37.7709 55.6886H37.041L35.7915 59.3506H35.7729L34.5172 55.6886H33.7873ZM38.6388 55.6268C38.5089 55.6268 38.4037 55.6639 38.3171 55.7505C38.2305 55.8309 38.1872 55.9361 38.1872 56.066C38.1872 56.1897 38.2305 56.301 38.3171 56.3876C38.4037 56.4681 38.5089 56.5114 38.6388 56.5114C38.7625 56.5114 38.8738 56.4681 38.9604 56.3876C39.047 56.301 39.0965 56.1959 39.0965 56.066C39.0965 55.9361 39.0532 55.8309 38.9666 55.7505C38.88 55.6639 38.7687 55.6268 38.6388 55.6268ZM38.3109 56.9072V60.1053H38.9666V56.9072H38.3109ZM39.514 56.9072L40.7016 60.1053H41.3573L42.545 56.9072H41.8336L41.0295 59.2888L40.2253 56.9072H39.514ZM44.3018 56.8206C43.8316 56.8206 43.4543 56.9815 43.1821 57.3093C42.8976 57.631 42.7615 58.0269 42.7615 58.5032C42.7615 59.029 42.91 59.4434 43.2069 59.7527C43.4791 60.0434 43.8564 60.1919 44.3265 60.1919C44.7533 60.1919 45.1059 60.0682 45.3843 59.8269C45.607 59.629 45.7492 59.3754 45.8235 59.0784H45.1678C45.0812 59.264 44.9884 59.4063 44.877 59.4929C44.7348 59.5981 44.5492 59.6537 44.3203 59.6537C44.0605 59.6537 43.8564 59.5671 43.7079 59.4063C43.5595 59.2393 43.4791 58.998 43.4543 58.6887H45.8791C45.8729 58.1197 45.743 57.6743 45.4956 57.3526C45.2234 56.9938 44.8214 56.8206 44.3018 56.8206ZM44.3203 57.3588C44.8399 57.3588 45.1307 57.6372 45.1925 58.1939H43.4667C43.5038 57.9217 43.5966 57.7176 43.7327 57.5753C43.8811 57.4268 44.0729 57.3588 44.3203 57.3588ZM47.9232 56.8206C47.7253 56.8206 47.5521 56.8763 47.4036 57C47.2799 57.0866 47.1748 57.2165 47.0943 57.3897V56.9072H46.4387V60.1053H47.0943V58.4104C47.0943 58.132 47.1748 57.9032 47.3418 57.73C47.4964 57.5691 47.6758 57.4887 47.8738 57.4887C48.0222 57.4887 48.1769 57.5073 48.3377 57.5567V56.9011C48.2263 56.8454 48.0841 56.8206 47.9232 56.8206ZM50.2248 56.8206C50.0268 56.8206 49.8536 56.8763 49.7052 57C49.5815 57.0866 49.4763 57.2165 49.3959 57.3897V56.9072H48.7402V60.1053H49.3959V58.4104C49.3959 58.132 49.4763 57.9032 49.6433 57.73C49.798 57.5691 49.9773 57.4887 50.1753 57.4887C50.3238 57.4887 50.4784 57.5073 50.6392 57.5567V56.9011C50.5279 56.8454 50.3856 56.8206 50.2248 56.8206ZM52.483 56.8206C52.0871 56.8206 51.7655 56.8887 51.5304 57.0371C51.2582 57.198 51.085 57.4578 51.017 57.8042L51.6665 57.8599C51.7036 57.6805 51.7964 57.5506 51.9449 57.464C52.0686 57.3897 52.2356 57.3526 52.4397 57.3526C52.9222 57.3526 53.1635 57.5753 53.1635 58.0207V58.1506L52.4459 58.1691C51.9758 58.1815 51.6046 58.2743 51.3448 58.4599C51.0603 58.6516 50.918 58.93 50.918 59.2888C50.918 59.5548 51.017 59.7713 51.2211 59.9383C51.4067 60.1053 51.6665 60.1919 52.0005 60.1919C52.2851 60.1919 52.5325 60.1362 52.7428 60.0372C52.9284 59.9445 53.083 59.8146 53.2068 59.6537V60.1053H53.813V58.064C53.813 57.6743 53.714 57.3774 53.5222 57.1732C53.2995 56.9382 52.9531 56.8206 52.483 56.8206ZM53.1635 58.6269V58.8125C53.1635 59.0599 53.0583 59.2702 52.8604 59.4372C52.6624 59.6042 52.4273 59.6908 52.149 59.6908C51.982 59.6908 51.8459 59.6475 51.7469 59.5671C51.6418 59.4867 51.5923 59.3877 51.5923 59.264C51.5923 58.8681 51.8892 58.6578 52.4892 58.6454L53.1635 58.6269ZM57.5946 55.8742L56.9389 56.1464V56.9072H56.3451V57.4516H56.9389V59.3073C56.9389 59.5609 56.9946 59.7527 57.1183 59.8888C57.242 60.0311 57.4461 60.1053 57.7183 60.1053H58.2441V59.5609H57.8235C57.743 59.5609 57.6874 59.5362 57.6503 59.4991C57.6131 59.4558 57.5946 59.3939 57.5946 59.3073V57.4516H58.3245V56.9072H57.5946V55.8742ZM60.3371 56.8206C60.1391 56.8206 59.9659 56.8763 59.8175 57C59.6937 57.0866 59.5886 57.2165 59.5082 57.3897V56.9072H58.8525V60.1053H59.5082V58.4104C59.5082 58.132 59.5886 57.9032 59.7556 57.73C59.9102 57.5691 60.0896 57.4887 60.2876 57.4887C60.436 57.4887 60.5907 57.5073 60.7515 57.5567V56.9011C60.6402 56.8454 60.4979 56.8206 60.3371 56.8206ZM61.618 55.6268C61.488 55.6268 61.3829 55.6639 61.2963 55.7505C61.2097 55.8309 61.1664 55.9361 61.1664 56.066C61.1664 56.1897 61.2097 56.301 61.2963 56.3876C61.3829 56.4681 61.488 56.5114 61.618 56.5114C61.7417 56.5114 61.853 56.4681 61.9396 56.3876C62.0262 56.301 62.0757 56.1959 62.0757 56.066C62.0757 55.9361 62.0324 55.8309 61.9458 55.7505C61.8592 55.6639 61.7479 55.6268 61.618 55.6268ZM61.2901 56.9072V60.1053H61.9458V56.9072H61.2901ZM64.0272 56.8206C63.6437 56.8206 63.3282 56.9011 63.087 57.0681C62.8457 57.2289 62.7282 57.4578 62.7282 57.7485C62.7282 58.0207 62.8519 58.2372 63.0993 58.3918C63.2478 58.4908 63.5138 58.5836 63.8911 58.6702C64.219 58.7444 64.4355 58.8063 64.5344 58.8558C64.72 58.9424 64.819 59.0661 64.819 59.2207C64.819 59.5053 64.5592 59.6537 64.052 59.6537C63.8045 59.6537 63.6313 59.6104 63.52 59.53C63.4086 59.4434 63.3282 59.2888 63.2911 59.0723H62.6478C62.722 59.8146 63.1921 60.1919 64.0705 60.1919C65.0169 60.1919 65.4932 59.8517 65.4932 59.1774C65.4932 58.8929 65.3633 58.6702 65.1097 58.5094C64.9365 58.398 64.6643 58.2929 64.2994 58.2063C63.9777 58.1258 63.7674 58.064 63.6561 58.0145C63.4829 57.9341 63.3963 57.8413 63.3963 57.73C63.3963 57.6062 63.4519 57.5073 63.5695 57.4454C63.6684 57.3835 63.8169 57.3588 64.0148 57.3588C64.2375 57.3588 64.4107 57.3959 64.5221 57.4701C64.6272 57.5382 64.7015 57.6557 64.7509 57.8289H65.3881C65.3138 57.1547 64.8561 56.8206 64.0272 56.8206ZM67.0182 55.8742L66.3625 56.1464V56.9072H65.7687V57.4516H66.3625V59.3073C66.3625 59.5609 66.4182 59.7527 66.5419 59.8888C66.6656 60.0311 66.8698 60.1053 67.1419 60.1053H67.6677V59.5609H67.2471C67.1667 59.5609 67.111 59.5362 67.0739 59.4991C67.0368 59.4558 67.0182 59.3939 67.0182 59.3073V57.4516H67.7481V56.9072H67.0182V55.8742ZM68.74 55.6268C68.6101 55.6268 68.505 55.6639 68.4184 55.7505C68.3318 55.8309 68.2885 55.9361 68.2885 56.066C68.2885 56.1897 68.3318 56.301 68.4184 56.3876C68.505 56.4681 68.6101 56.5114 68.74 56.5114C68.8638 56.5114 68.9751 56.4681 69.0617 56.3876C69.1483 56.301 69.1978 56.1959 69.1978 56.066C69.1978 55.9361 69.1545 55.8309 69.0679 55.7505C68.9813 55.6639 68.8699 55.6268 68.74 55.6268ZM68.4122 56.9072V60.1053H69.0679V56.9072H68.4122ZM71.3101 56.8206C70.84 56.8206 70.4689 56.9877 70.2029 57.3217C69.9554 57.631 69.8317 58.0269 69.8317 58.5217C69.8317 58.9918 69.9493 59.3816 70.1967 59.6908C70.4565 60.0249 70.8153 60.1919 71.2792 60.1919C71.6689 60.1919 71.9968 60.0063 72.2566 59.6352V61.3301H72.9122V56.9072H72.2999V57.2908C72.0772 56.9753 71.7431 56.8206 71.3101 56.8206ZM71.4091 57.3526C71.6936 57.3526 71.9102 57.464 72.071 57.6928C72.2071 57.8908 72.2751 58.1568 72.2751 58.4846V58.5403C72.2751 58.8805 72.1885 59.1589 72.0277 59.3692C71.8668 59.5609 71.6689 59.6599 71.4277 59.6599C71.106 59.6599 70.8648 59.5548 70.7163 59.3444C70.574 59.1465 70.506 58.8743 70.506 58.5217C70.506 58.1691 70.5678 57.897 70.6977 57.699C70.8462 57.464 71.0874 57.3526 71.4091 57.3526ZM73.6524 56.9072V58.8991C73.6524 59.7589 74.0359 60.1919 74.8092 60.1919C75.2112 60.1919 75.5453 60.0187 75.8174 59.6723V60.1053H76.4731V56.9072H75.8174V58.8619C75.7618 59.097 75.6566 59.2888 75.5081 59.431C75.3597 59.5671 75.205 59.6414 75.0318 59.6414C74.7782 59.6414 74.5926 59.5733 74.4813 59.4496C74.3638 59.3259 74.3081 59.1279 74.3081 58.8558V56.9072H73.6524ZM78.5772 56.8206C78.1071 56.8206 77.7298 56.9815 77.4576 57.3093C77.173 57.631 77.0369 58.0269 77.0369 58.5032C77.0369 59.029 77.1854 59.4434 77.4823 59.7527C77.7545 60.0434 78.1318 60.1919 78.6019 60.1919C79.0288 60.1919 79.3814 60.0682 79.6597 59.8269C79.8824 59.629 80.0247 59.3754 80.0989 59.0784H79.4432C79.3566 59.264 79.2638 59.4063 79.1525 59.4929C79.0102 59.5981 78.8246 59.6537 78.5958 59.6537C78.336 59.6537 78.1318 59.5671 77.9834 59.4063C77.8349 59.2393 77.7545 58.998 77.7298 58.6887H80.1546C80.1484 58.1197 80.0185 57.6743 79.7711 57.3526C79.4989 56.9938 79.0968 56.8206 78.5772 56.8206ZM78.5958 57.3588C79.1154 57.3588 79.4061 57.6372 79.468 58.1939H77.7421C77.7792 57.9217 77.872 57.7176 78.0081 57.5753C78.1566 57.4268 78.3483 57.3588 78.5958 57.3588Z" fill="black"/>
<path d="M35.8234 45.3538H38.3934V46.3599H34.5766V38.7591H35.8234V45.3538ZM42.0498 46.4584C41.4811 46.4584 40.9671 46.3308 40.5078 46.0756C40.0485 45.8131 39.6876 45.4486 39.4251 44.9819C39.1626 44.508 39.0314 43.9612 39.0314 43.3415C39.0314 42.729 39.1663 42.1859 39.436 41.712C39.7058 41.2381 40.074 40.8735 40.5406 40.6183C41.0072 40.3631 41.5285 40.2356 42.1045 40.2356C42.6805 40.2356 43.2018 40.3631 43.6684 40.6183C44.135 40.8735 44.5032 41.2381 44.773 41.712C45.0427 42.1859 45.1776 42.729 45.1776 43.3415C45.1776 43.9539 45.0391 44.4971 44.762 44.971C44.485 45.4449 44.1059 45.8131 43.6247 46.0756C43.1508 46.3308 42.6258 46.4584 42.0498 46.4584ZM42.0498 45.3757C42.3706 45.3757 42.6696 45.2991 42.9466 45.146C43.231 44.9929 43.4606 44.7632 43.6356 44.457C43.8106 44.1508 43.8981 43.7789 43.8981 43.3415C43.8981 42.904 43.8142 42.5358 43.6465 42.2369C43.4788 41.9307 43.2565 41.701 42.9794 41.5479C42.7024 41.3948 42.4034 41.3183 42.0826 41.3183C41.7618 41.3183 41.4629 41.3948 41.1859 41.5479C40.9161 41.701 40.701 41.9307 40.5406 42.2369C40.3802 42.5358 40.3 42.904 40.3 43.3415C40.3 43.9904 40.4641 44.4934 40.7921 44.8507C41.1275 45.2007 41.5468 45.3757 42.0498 45.3757ZM45.9945 43.3415C45.9945 42.7218 46.1185 42.1786 46.3664 41.712C46.6215 41.2381 46.9715 40.8735 47.4163 40.6183C47.861 40.3631 48.3714 40.2356 48.9473 40.2356C49.6764 40.2356 50.2779 40.4105 50.7519 40.7605C51.2331 41.1032 51.5575 41.5953 51.7252 42.2369H50.38C50.2706 41.938 50.0957 41.7047 49.8551 41.537C49.6145 41.3693 49.3119 41.2854 48.9473 41.2854C48.437 41.2854 48.0287 41.4677 47.7225 41.8323C47.4235 42.1895 47.2741 42.6926 47.2741 43.3415C47.2741 43.9904 47.4235 44.4971 47.7225 44.8616C48.0287 45.2262 48.437 45.4085 48.9473 45.4085C49.6691 45.4085 50.1467 45.0913 50.38 44.457H51.7252C51.5502 45.0694 51.2221 45.5579 50.7409 45.9225C50.2597 46.2797 49.6619 46.4584 48.9473 46.4584C48.3714 46.4584 47.861 46.3308 47.4163 46.0756C46.9715 45.8131 46.6215 45.4486 46.3664 44.9819C46.1185 44.508 45.9945 43.9612 45.9945 43.3415ZM52.5521 43.3196C52.5521 42.7145 52.676 42.1786 52.9239 41.712C53.1791 41.2453 53.5218 40.8844 53.9519 40.6293C54.3894 40.3668 54.8706 40.2356 55.3955 40.2356C55.8694 40.2356 56.2814 40.3303 56.6313 40.5199C56.9886 40.7022 57.273 40.9318 57.4844 41.2089V40.334H58.7421V46.3599H57.4844V45.4631C57.273 45.7475 56.985 45.9844 56.6204 46.174C56.2559 46.3636 55.8403 46.4584 55.3737 46.4584C54.856 46.4584 54.3821 46.3271 53.9519 46.0646C53.5218 45.7949 53.1791 45.423 52.9239 44.9491C52.676 44.4679 52.5521 43.9248 52.5521 43.3196ZM57.4844 43.3415C57.4844 42.9259 57.3969 42.565 57.2219 42.2588C57.0542 41.9526 56.8318 41.7193 56.5548 41.5589C56.2777 41.3985 55.9788 41.3183 55.658 41.3183C55.3372 41.3183 55.0383 41.3985 54.7612 41.5589C54.4842 41.712 54.2582 41.9416 54.0832 42.2478C53.9155 42.5468 53.8316 42.904 53.8316 43.3196C53.8316 43.7352 53.9155 44.0997 54.0832 44.4132C54.2582 44.7268 54.4842 44.9674 54.7612 45.135C55.0456 45.2955 55.3445 45.3757 55.658 45.3757C55.9788 45.3757 56.2777 45.2955 56.5548 45.135C56.8318 44.9746 57.0542 44.7413 57.2219 44.4351C57.3969 44.1216 57.4844 43.7571 57.4844 43.3415ZM61.6264 38.267V46.3599H60.3796V38.267H61.6264ZM71.0146 38.7591V39.7762H68.9913V46.3599H67.7446V39.7762H65.7104V38.7591H71.0146ZM77.8001 43.1993C77.8001 43.4253 77.7855 43.6295 77.7563 43.8117H73.1521C73.1886 44.2929 73.3672 44.6794 73.688 44.971C74.0088 45.2626 74.4025 45.4085 74.8691 45.4085C75.5399 45.4085 76.0138 45.1278 76.2909 44.5664H77.636C77.4538 45.1205 77.122 45.5762 76.6408 45.9334C76.1669 46.2834 75.5763 46.4584 74.8691 46.4584C74.2931 46.4584 73.7755 46.3308 73.3162 46.0756C72.8641 45.8131 72.5069 45.4486 72.2444 44.9819C71.9892 44.508 71.8616 43.9612 71.8616 43.3415C71.8616 42.7218 71.9856 42.1786 72.2335 41.712C72.4886 41.2381 72.8423 40.8735 73.2943 40.6183C73.7536 40.3631 74.2786 40.2356 74.8691 40.2356C75.4378 40.2356 75.9445 40.3595 76.3893 40.6074C76.834 40.8553 77.1803 41.2052 77.4282 41.6573C77.6761 42.102 77.8001 42.616 77.8001 43.1993ZM76.4986 42.8056C76.4914 42.3463 76.3273 41.9781 76.0065 41.701C75.6857 41.424 75.2884 41.2854 74.8144 41.2854C74.3843 41.2854 74.0161 41.424 73.7099 41.701C73.4037 41.9708 73.2214 42.339 73.1631 42.8056H76.4986ZM81.2143 46.4584C80.7404 46.4584 80.3138 46.3745 79.9347 46.2068C79.5629 46.0318 79.2676 45.7985 79.0489 45.5069C78.8301 45.208 78.7135 44.8762 78.6989 44.5117H79.9894C80.0113 44.7669 80.1316 44.9819 80.3503 45.1569C80.5763 45.3246 80.857 45.4085 81.1924 45.4085C81.5424 45.4085 81.8121 45.3428 82.0017 45.2116C82.1985 45.0731 82.297 44.8981 82.297 44.6867C82.297 44.4606 82.1876 44.2929 81.9689 44.1836C81.7574 44.0742 81.4184 43.9539 80.9518 43.8227C80.4998 43.6987 80.1316 43.5784 79.8472 43.4618C79.5629 43.3451 79.315 43.1665 79.1036 42.9259C78.8994 42.6853 78.7973 42.3681 78.7973 41.9744C78.7973 41.6536 78.8921 41.362 79.0817 41.0995C79.2712 40.8298 79.541 40.6183 79.891 40.4652C80.2482 40.3121 80.6565 40.2356 81.1158 40.2356C81.8012 40.2356 82.3517 40.4105 82.7672 40.7605C83.1901 41.1032 83.4161 41.5734 83.4453 42.1713H82.1985C82.1767 41.9015 82.0673 41.6864 81.8705 41.526C81.6736 41.3656 81.4075 41.2854 81.0721 41.2854C80.744 41.2854 80.4925 41.3474 80.3175 41.4714C80.1425 41.5953 80.055 41.7594 80.055 41.9635C80.055 42.1239 80.1133 42.2588 80.23 42.3681C80.3467 42.4775 80.4888 42.565 80.6565 42.6306C80.8242 42.6889 81.0721 42.7655 81.4002 42.8603C81.8376 42.9769 82.1949 43.0972 82.472 43.2212C82.7563 43.3378 83.0006 43.5128 83.2047 43.7461C83.4088 43.9794 83.5146 44.2893 83.5219 44.6757C83.5219 45.0184 83.4271 45.3246 83.2375 45.5944C83.0479 45.8641 82.7782 46.0756 82.4282 46.2287C82.0855 46.3818 81.6809 46.4584 81.2143 46.4584ZM86.3235 41.3511V44.6867C86.3235 44.9127 86.3746 45.0767 86.4766 45.1788C86.586 45.2736 86.7683 45.321 87.0235 45.321H87.789V46.3599H86.8047C86.2433 46.3599 85.8132 46.2287 85.5142 45.9662C85.2153 45.7037 85.0658 45.2772 85.0658 44.6867V41.3511H84.355V40.334H85.0658V38.8357H86.3235V40.334H87.789V41.3511H86.3235Z" fill="#1D2125"/>
<path d="M48.4484 76.5213L46.7473 80.938H47.4649L47.8793 79.7998H49.7784L50.1928 80.938H50.9166L49.2155 76.5213H48.4484ZM48.0835 79.2431L48.8196 77.2451H48.8443L49.5742 79.2431H48.0835ZM51.3609 76.4347V80.938H52.0166V76.4347H51.3609ZM53.297 76.4595C53.1671 76.4595 53.062 76.4966 52.9754 76.5832C52.8887 76.6636 52.8454 76.7688 52.8454 76.8987C52.8454 77.0224 52.8887 77.1337 52.9754 77.2203C53.062 77.3008 53.1671 77.3441 53.297 77.3441C53.4207 77.3441 53.5321 77.3008 53.6187 77.2203C53.7053 77.1337 53.7548 77.0286 53.7548 76.8987C53.7548 76.7688 53.7115 76.6636 53.6249 76.5832C53.5383 76.4966 53.4269 76.4595 53.297 76.4595ZM52.9692 77.7399V80.938H53.6249V77.7399H52.9692ZM55.8671 77.6533C55.397 77.6533 55.0258 77.8204 54.7598 78.1544C54.5124 78.4637 54.3887 78.8596 54.3887 79.3544C54.3887 79.8245 54.5062 80.2143 54.7537 80.5235C55.0135 80.8576 55.3722 81.0246 55.8362 81.0246C56.2259 81.0246 56.5537 80.839 56.8135 80.4679V82.1628H57.4692V77.7399H56.8568V78.1235C56.6341 77.808 56.3001 77.6533 55.8671 77.6533ZM55.9661 78.1853C56.2506 78.1853 56.4671 78.2967 56.628 78.5255C56.764 78.7235 56.8321 78.9895 56.8321 79.3173V79.373C56.8321 79.7132 56.7455 79.9916 56.5847 80.2019C56.4238 80.3936 56.2259 80.4926 55.9846 80.4926C55.663 80.4926 55.4217 80.3875 55.2733 80.1771C55.131 79.9792 55.063 79.707 55.063 79.3544C55.063 79.0018 55.1248 78.7297 55.2547 78.5317C55.4032 78.2967 55.6444 78.1853 55.9661 78.1853ZM58.2094 77.7399V79.7318C58.2094 80.5916 58.5929 81.0246 59.3661 81.0246C59.7682 81.0246 60.1022 80.8514 60.3744 80.505V80.938H61.0301V77.7399H60.3744V79.6946C60.3187 79.9297 60.2136 80.1215 60.0651 80.2637C59.9167 80.3998 59.762 80.4741 59.5888 80.4741C59.3352 80.4741 59.1496 80.406 59.0383 80.2823C58.9207 80.1586 58.8651 79.9606 58.8651 79.6885V77.7399H58.2094ZM63.2208 77.6533C62.8249 77.6533 62.5032 77.7214 62.2682 77.8698C61.996 78.0307 61.8228 78.2905 61.7547 78.6369L62.4043 78.6926C62.4414 78.5132 62.5342 78.3833 62.6826 78.2967C62.8063 78.2224 62.9733 78.1853 63.1775 78.1853C63.66 78.1853 63.9012 78.408 63.9012 78.8534V78.9833L63.1837 79.0018C62.7135 79.0142 62.3424 79.107 62.0826 79.2926C61.798 79.4843 61.6558 79.7627 61.6558 80.1215C61.6558 80.3875 61.7547 80.604 61.9589 80.771C62.1444 80.938 62.4043 81.0246 62.7383 81.0246C63.0228 81.0246 63.2703 80.9689 63.4806 80.8699C63.6661 80.7772 63.8208 80.6473 63.9445 80.4864V80.938H64.5507V78.8967C64.5507 78.507 64.4517 78.2101 64.26 78.0059C64.0373 77.7709 63.6909 77.6533 63.2208 77.6533ZM63.9012 79.4596V79.6452C63.9012 79.8926 63.796 80.1029 63.5981 80.2699C63.4002 80.4369 63.1651 80.5235 62.8867 80.5235C62.7197 80.5235 62.5836 80.4802 62.4847 80.3998C62.3795 80.3194 62.33 80.2204 62.33 80.0967C62.33 79.7008 62.6269 79.4905 63.227 79.4781L63.9012 79.4596ZM66.8353 77.6533C66.5137 77.6533 66.2168 77.7956 65.957 78.0925V77.7399H65.3013V80.938H65.957V79.0142C65.957 78.7915 66.0188 78.5998 66.1549 78.4451C66.2786 78.2843 66.4518 78.2039 66.6621 78.2039C67.0951 78.2039 67.3178 78.4513 67.3178 78.9585V80.938H67.9735V78.9709C67.9735 78.7359 68.0354 78.5441 68.1591 78.408C68.2828 78.2719 68.4313 78.2039 68.6168 78.2039C68.8643 78.2039 69.0498 78.2596 69.1612 78.3833C69.2725 78.5008 69.3282 78.6926 69.3282 78.9524V80.938H69.9839V78.841C69.9839 78.4822 69.8726 78.1977 69.6622 77.9812C69.4457 77.7585 69.1736 77.6533 68.8457 77.6533C68.6292 77.6533 68.4498 77.6905 68.3014 77.7709C68.1405 77.8513 67.9859 77.9936 67.8436 78.1915C67.6457 77.8327 67.3055 77.6533 66.8353 77.6533Z" fill="#A82CD0"/>
<rect x="33.7573" y="74.5585" width="7.42292" height="7.42292" rx="3.71146" fill="#A82CD0"/>
<path d="M102.543 76.5213V80.938H103.217V77.7832H103.242L104.597 80.938H105.178L106.533 77.7832H106.558V80.938H107.232V76.5213H106.434L104.9 80.0596H104.881L103.341 76.5213H102.543ZM109.511 77.6533C109.028 77.6533 108.639 77.8142 108.348 78.1358C108.057 78.4513 107.915 78.8534 107.915 79.3421C107.915 79.8245 108.057 80.2266 108.342 80.5359C108.639 80.8576 109.028 81.0246 109.511 81.0246C109.993 81.0246 110.383 80.8576 110.68 80.5359C110.965 80.2266 111.107 79.8245 111.107 79.3421C111.107 78.8534 110.958 78.4513 110.674 78.1358C110.383 77.8142 109.993 77.6533 109.511 77.6533ZM109.511 78.1915C109.814 78.1915 110.049 78.309 110.222 78.5503C110.371 78.7544 110.445 79.0204 110.445 79.3421C110.445 79.6575 110.371 79.9173 110.222 80.1277C110.049 80.3627 109.814 80.4864 109.511 80.4864C109.208 80.4864 108.973 80.3627 108.806 80.1277C108.657 79.9235 108.589 79.6637 108.589 79.3421C108.589 79.0204 108.657 78.7544 108.806 78.5503C108.973 78.309 109.208 78.1915 109.511 78.1915ZM113.214 77.6533C113.016 77.6533 112.843 77.709 112.695 77.8327C112.571 77.9193 112.466 78.0492 112.385 78.2224V77.7399H111.73V80.938H112.385V79.2431C112.385 78.9647 112.466 78.7359 112.633 78.5627C112.787 78.4018 112.967 78.3214 113.165 78.3214C113.313 78.3214 113.468 78.34 113.629 78.3895V77.7338C113.517 77.6781 113.375 77.6533 113.214 77.6533ZM114.031 76.4347V80.938H114.644V80.5545C114.866 80.8638 115.194 81.0246 115.633 81.0246C116.103 81.0246 116.468 80.8576 116.741 80.5235C116.988 80.2143 117.112 79.8122 117.112 79.3235C117.112 78.8534 116.988 78.4637 116.747 78.1544C116.481 77.8204 116.122 77.6533 115.664 77.6533C115.268 77.6533 114.947 77.8389 114.687 78.2162V76.4347H114.031ZM115.516 78.1853C115.837 78.1853 116.079 78.2905 116.233 78.5132C116.369 78.6987 116.437 78.9709 116.437 79.3235C116.437 79.6761 116.369 79.9483 116.246 80.1462C116.091 80.3751 115.856 80.4926 115.534 80.4926C115.25 80.4926 115.027 80.3751 114.872 80.1524C114.736 79.9483 114.668 79.6885 114.668 79.3668V79.3111C114.668 78.9647 114.749 78.6864 114.922 78.4761C115.07 78.2781 115.268 78.1853 115.516 78.1853ZM118.192 76.4595C118.062 76.4595 117.957 76.4966 117.87 76.5832C117.784 76.6636 117.74 76.7688 117.74 76.8987C117.74 77.0224 117.784 77.1337 117.87 77.2203C117.957 77.3008 118.062 77.3441 118.192 77.3441C118.316 77.3441 118.427 77.3008 118.514 77.2203C118.6 77.1337 118.65 77.0286 118.65 76.8987C118.65 76.7688 118.606 76.6636 118.52 76.5832C118.433 76.4966 118.322 76.4595 118.192 76.4595ZM117.864 77.7399V80.938H118.52V77.7399H117.864Z" fill="#D4767F"/>
<rect x="89.1191" y="74.5585" width="7.42292" height="7.42292" rx="3.71146" fill="#D4767F"/>
<path d="M151.1 76.5213V80.938H151.774V77.7832H151.799L153.154 80.938H153.735L155.09 77.7832H155.114V80.938H155.789V76.5213H154.991L153.457 80.0596H153.438L151.898 76.5213H151.1ZM158.068 77.6533C157.585 77.6533 157.196 77.8142 156.905 78.1358C156.614 78.4513 156.472 78.8534 156.472 79.3421C156.472 79.8245 156.614 80.2266 156.899 80.5359C157.196 80.8576 157.585 81.0246 158.068 81.0246C158.55 81.0246 158.94 80.8576 159.237 80.5359C159.521 80.2266 159.664 79.8245 159.664 79.3421C159.664 78.8534 159.515 78.4513 159.231 78.1358C158.94 77.8142 158.55 77.6533 158.068 77.6533ZM158.068 78.1915C158.371 78.1915 158.606 78.309 158.779 78.5503C158.928 78.7544 159.002 79.0204 159.002 79.3421C159.002 79.6575 158.928 79.9173 158.779 80.1277C158.606 80.3627 158.371 80.4864 158.068 80.4864C157.765 80.4864 157.53 80.3627 157.363 80.1277C157.214 79.9235 157.146 79.6637 157.146 79.3421C157.146 79.0204 157.214 78.7544 157.363 78.5503C157.53 78.309 157.765 78.1915 158.068 78.1915ZM160.361 76.4347V80.938H161.016V76.4347H160.361ZM163.188 77.6533C162.717 77.6533 162.34 77.8142 162.068 78.142C161.783 78.4637 161.647 78.8596 161.647 79.3359C161.647 79.8617 161.796 80.2761 162.093 80.5854C162.365 80.8761 162.742 81.0246 163.212 81.0246C163.639 81.0246 163.992 80.9009 164.27 80.6596C164.493 80.4617 164.635 80.2081 164.709 79.9112H164.054C163.967 80.0967 163.874 80.239 163.763 80.3256C163.621 80.4308 163.435 80.4864 163.206 80.4864C162.946 80.4864 162.742 80.3998 162.594 80.239C162.445 80.072 162.365 79.8307 162.34 79.5214H164.765C164.759 78.9524 164.629 78.507 164.381 78.1853C164.109 77.8265 163.707 77.6533 163.188 77.6533ZM163.206 78.1915C163.726 78.1915 164.016 78.4699 164.078 79.0266H162.353C162.39 78.7544 162.482 78.5503 162.619 78.408C162.767 78.2596 162.959 78.1915 163.206 78.1915ZM166.518 77.6533C166.135 77.6533 165.819 77.7338 165.578 77.9008C165.337 78.0616 165.219 78.2905 165.219 78.5812C165.219 78.8534 165.343 79.0699 165.59 79.2245C165.739 79.3235 166.005 79.4163 166.382 79.5029C166.71 79.5771 166.927 79.639 167.026 79.6885C167.211 79.7751 167.31 79.8988 167.31 80.0534C167.31 80.338 167.05 80.4864 166.543 80.4864C166.296 80.4864 166.122 80.4431 166.011 80.3627C165.9 80.2761 165.819 80.1215 165.782 79.905H165.139C165.213 80.6473 165.683 81.0246 166.562 81.0246C167.508 81.0246 167.984 80.6844 167.984 80.0101C167.984 79.7256 167.854 79.5029 167.601 79.3421C167.428 79.2307 167.155 79.1256 166.791 79.039C166.469 78.9585 166.259 78.8967 166.147 78.8472C165.974 78.7668 165.887 78.674 165.887 78.5627C165.887 78.4389 165.943 78.34 166.061 78.2781C166.16 78.2162 166.308 78.1915 166.506 78.1915C166.729 78.1915 166.902 78.2286 167.013 78.3029C167.118 78.3709 167.193 78.4884 167.242 78.6616H167.879C167.805 77.9874 167.347 77.6533 166.518 77.6533ZM169.509 76.7069L168.854 76.9791V77.7399H168.26V78.2843H168.854V80.14C168.854 80.3936 168.909 80.5854 169.033 80.7215C169.157 80.8638 169.361 80.938 169.633 80.938H170.159V80.3936H169.738C169.658 80.3936 169.602 80.3689 169.565 80.3318C169.528 80.2885 169.509 80.2266 169.509 80.14V78.2843H170.239V77.7399H169.509V76.7069ZM171.231 76.4595C171.101 76.4595 170.996 76.4966 170.91 76.5832C170.823 76.6636 170.78 76.7688 170.78 76.8987C170.78 77.0224 170.823 77.1337 170.91 77.2203C170.996 77.3008 171.101 77.3441 171.231 77.3441C171.355 77.3441 171.466 77.3008 171.553 77.2203C171.639 77.1337 171.689 77.0286 171.689 76.8987C171.689 76.7688 171.646 76.6636 171.559 76.5832C171.472 76.4966 171.361 76.4595 171.231 76.4595ZM170.903 77.7399V80.938H171.559V77.7399H170.903ZM173.801 77.6533C173.331 77.6533 172.954 77.8142 172.682 78.142C172.397 78.4637 172.261 78.8596 172.261 79.3359C172.261 79.8617 172.409 80.2761 172.706 80.5854C172.979 80.8761 173.356 81.0246 173.826 81.0246C174.253 81.0246 174.605 80.9009 174.884 80.6596C175.106 80.4617 175.249 80.2081 175.323 79.9112H174.667C174.581 80.0967 174.488 80.239 174.377 80.3256C174.234 80.4308 174.049 80.4864 173.82 80.4864C173.56 80.4864 173.356 80.3998 173.207 80.239C173.059 80.072 172.979 79.8307 172.954 79.5214H175.379C175.372 78.9524 175.243 78.507 174.995 78.1853C174.723 77.8265 174.321 77.6533 173.801 77.6533ZM173.82 78.1915C174.339 78.1915 174.63 78.4699 174.692 79.0266H172.966C173.003 78.7544 173.096 78.5503 173.232 78.408C173.381 78.2596 173.572 78.1915 173.82 78.1915Z" fill="#ED9013"/>
<rect x="137.678" y="74.5585" width="7.42292" height="7.42292" rx="3.71146" fill="#ED9013"/>
</g>
<defs>
<filter id="filter0_d" x="0.385254" y="0.981934" width="281.966" height="281.966" filterUnits="userSpaceOnUse" color-interpolation-filters="sRGB">
<feFlood flood-opacity="0" result="BackgroundImageFix"/>
<feColorMatrix in="SourceAlpha" type="matrix" values="0 0 0 0 0 0 0 0 0 0 0 0 0 0 0 0 0 0 127 0" result="hardAlpha"/>
<feOffset dx="4" dy="4"/>
<feGaussianBlur stdDeviation="12.5"/>
<feColorMatrix type="matrix" values="0 0 0 0 0.8125 0 0 0 0 0.83125 0 0 0 0 1 0 0 0 0.5 0"/>
<feBlend mode="normal" in2="BackgroundImageFix" result="effect1_dropShadow"/>
<feBlend mode="normal" in="SourceGraphic" in2="effect1_dropShadow" result="shape"/>
</filter>
</defs>
</svg>
