<svg width="71" height="71" viewBox="0 0 71 71" fill="none" xmlns="http://www.w3.org/2000/svg">
<rect x="0.565796" y="0.509277" width="70.0905" height="70.0905" rx="9.95378" fill="white"/>
<path opacity="0.3" d="M8.33161 60.8551L8.8101 62.1896H9.05681L9.5353 60.8551H9.31475L8.93719 61.9616H8.93159L8.55216 60.8551H8.33161ZM9.79753 60.8364C9.75827 60.8364 9.7265 60.8476 9.70033 60.8738C9.67417 60.8981 9.66108 60.9299 9.66108 60.9691C9.66108 61.0065 9.67417 61.0402 9.70033 61.0663C9.7265 61.0906 9.75827 61.1037 9.79753 61.1037C9.83491 61.1037 9.86855 61.0906 9.89472 61.0663C9.92088 61.0402 9.93584 61.0084 9.93584 60.9691C9.93584 60.9299 9.92275 60.8981 9.89659 60.8738C9.87042 60.8476 9.83678 60.8364 9.79753 60.8364ZM9.69846 61.2233V62.1896H9.89659V61.2233H9.69846ZM10.062 61.2233L10.4208 62.1896H10.619L10.9778 61.2233H10.7629L10.5199 61.9429L10.2769 61.2233H10.062ZM11.5086 61.1972C11.3666 61.1972 11.2526 61.2458 11.1703 61.3448C11.0844 61.442 11.0432 61.5616 11.0432 61.7055C11.0432 61.8644 11.0881 61.9896 11.1778 62.0831C11.2601 62.1709 11.3741 62.2158 11.5161 62.2158C11.6451 62.2158 11.7516 62.1784 11.8357 62.1055C11.903 62.0457 11.946 61.9691 11.9684 61.8794H11.7703C11.7441 61.9354 11.7161 61.9784 11.6825 62.0046C11.6395 62.0364 11.5834 62.0532 11.5142 62.0532C11.4357 62.0532 11.3741 62.027 11.3292 61.9784C11.2843 61.928 11.2601 61.8551 11.2526 61.7616H11.9853C11.9834 61.5897 11.9441 61.4551 11.8694 61.3579C11.7871 61.2495 11.6656 61.1972 11.5086 61.1972ZM11.5142 61.3598C11.6712 61.3598 11.7591 61.4439 11.7778 61.6121H11.2563C11.2675 61.5299 11.2956 61.4682 11.3367 61.4252C11.3815 61.3803 11.4395 61.3598 11.5142 61.3598ZM12.6029 61.1972C12.5431 61.1972 12.4908 61.214 12.4459 61.2514C12.4085 61.2775 12.3767 61.3168 12.3524 61.3691V61.2233H12.1543V62.1896H12.3524V61.6775C12.3524 61.5934 12.3767 61.5242 12.4272 61.4719C12.4739 61.4233 12.5281 61.399 12.5879 61.399C12.6328 61.399 12.6795 61.4046 12.7281 61.4196V61.2215C12.6945 61.2046 12.6515 61.1972 12.6029 61.1972ZM13.2983 61.1972C13.2385 61.1972 13.1862 61.214 13.1413 61.2514C13.1039 61.2775 13.0722 61.3168 13.0479 61.3691V61.2233H12.8497V62.1896H13.0479V61.6775C13.0479 61.5934 13.0722 61.5242 13.1226 61.4719C13.1694 61.4233 13.2236 61.399 13.2834 61.399C13.3282 61.399 13.375 61.4046 13.4236 61.4196V61.2215C13.3899 61.2046 13.3469 61.1972 13.2983 61.1972ZM13.9807 61.1972C13.8611 61.1972 13.7639 61.2177 13.6928 61.2626C13.6106 61.3112 13.5583 61.3897 13.5377 61.4943L13.734 61.5112C13.7452 61.457 13.7732 61.4177 13.8181 61.3915C13.8554 61.3691 13.9059 61.3579 13.9676 61.3579C14.1134 61.3579 14.1863 61.4252 14.1863 61.5598V61.599L13.9695 61.6046C13.8274 61.6084 13.7153 61.6364 13.6368 61.6925C13.5508 61.7504 13.5078 61.8345 13.5078 61.9429C13.5078 62.0233 13.5377 62.0887 13.5994 62.1392C13.6555 62.1896 13.734 62.2158 13.8349 62.2158C13.9209 62.2158 13.9956 62.199 14.0592 62.1691C14.1152 62.141 14.162 62.1018 14.1994 62.0532V62.1896H14.3825V61.5728C14.3825 61.4551 14.3526 61.3654 14.2947 61.3037C14.2274 61.2327 14.1227 61.1972 13.9807 61.1972ZM14.1863 61.7429V61.799C14.1863 61.8738 14.1545 61.9373 14.0947 61.9878C14.0349 62.0382 13.9639 62.0644 13.8797 62.0644C13.8293 62.0644 13.7882 62.0513 13.7583 62.027C13.7265 62.0027 13.7115 61.9728 13.7115 61.9354C13.7115 61.8158 13.8012 61.7523 13.9825 61.7485L14.1863 61.7429ZM15.5252 60.9112L15.3271 60.9934V61.2233H15.1476V61.3878H15.3271V61.9485C15.3271 62.0252 15.3439 62.0831 15.3813 62.1242C15.4186 62.1672 15.4803 62.1896 15.5626 62.1896H15.7214V62.0252H15.5943C15.57 62.0252 15.5532 62.0177 15.542 62.0065C15.5308 61.9934 15.5252 61.9747 15.5252 61.9485V61.3878H15.7457V61.2233H15.5252V60.9112ZM16.3538 61.1972C16.294 61.1972 16.2417 61.214 16.1968 61.2514C16.1595 61.2775 16.1277 61.3168 16.1034 61.3691V61.2233H15.9053V62.1896H16.1034V61.6775C16.1034 61.5934 16.1277 61.5242 16.1781 61.4719C16.2249 61.4233 16.2791 61.399 16.3389 61.399C16.3837 61.399 16.4305 61.4046 16.4791 61.4196V61.2215C16.4454 61.2046 16.4024 61.1972 16.3538 61.1972ZM16.7409 60.8364C16.7016 60.8364 16.6698 60.8476 16.6437 60.8738C16.6175 60.8981 16.6044 60.9299 16.6044 60.9691C16.6044 61.0065 16.6175 61.0402 16.6437 61.0663C16.6698 61.0906 16.7016 61.1037 16.7409 61.1037C16.7782 61.1037 16.8119 61.0906 16.8381 61.0663C16.8642 61.0402 16.8792 61.0084 16.8792 60.9691C16.8792 60.9299 16.8661 60.8981 16.8399 60.8738C16.8138 60.8476 16.7801 60.8364 16.7409 60.8364ZM16.6418 61.2233V62.1896H16.8399V61.2233H16.6418ZM17.4688 61.1972C17.353 61.1972 17.2576 61.2215 17.1847 61.2719C17.1119 61.3205 17.0763 61.3897 17.0763 61.4775C17.0763 61.5598 17.1137 61.6252 17.1885 61.6719C17.2333 61.7018 17.3137 61.7298 17.4277 61.756C17.5268 61.7784 17.5922 61.7971 17.6221 61.8121C17.6782 61.8382 17.7081 61.8756 17.7081 61.9224C17.7081 62.0083 17.6296 62.0532 17.4763 62.0532C17.4016 62.0532 17.3492 62.0401 17.3156 62.0158C17.2819 61.9896 17.2576 61.9429 17.2464 61.8775H17.052C17.0745 62.1018 17.2165 62.2158 17.4819 62.2158C17.7679 62.2158 17.9118 62.113 17.9118 61.9093C17.9118 61.8233 17.8726 61.756 17.7959 61.7074C17.7436 61.6738 17.6614 61.642 17.5511 61.6158C17.4539 61.5915 17.3903 61.5728 17.3567 61.5579C17.3044 61.5336 17.2782 61.5056 17.2782 61.4719C17.2782 61.4345 17.295 61.4046 17.3305 61.3859C17.3604 61.3672 17.4053 61.3598 17.4651 61.3598C17.5324 61.3598 17.5847 61.371 17.6184 61.3934C17.6501 61.414 17.6726 61.4495 17.6875 61.5018H17.88C17.8576 61.2981 17.7193 61.1972 17.4688 61.1972ZM18.3726 60.9112L18.1745 60.9934V61.2233H17.995V61.3878H18.1745V61.9485C18.1745 62.0252 18.1913 62.0831 18.2287 62.1242C18.2661 62.1672 18.3277 62.1896 18.41 62.1896H18.5689V62.0252H18.4418C18.4175 62.0252 18.4006 62.0177 18.3894 62.0065C18.3782 61.9934 18.3726 61.9747 18.3726 61.9485V61.3878H18.5932V61.2233H18.3726V60.9112ZM18.8929 60.8364C18.8536 60.8364 18.8218 60.8476 18.7957 60.8738C18.7695 60.8981 18.7564 60.9299 18.7564 60.9691C18.7564 61.0065 18.7695 61.0402 18.7957 61.0663C18.8218 61.0906 18.8536 61.1037 18.8929 61.1037C18.9302 61.1037 18.9639 61.0906 18.9901 61.0663C19.0162 61.0402 19.0312 61.0084 19.0312 60.9691C19.0312 60.9299 19.0181 60.8981 18.9919 60.8738C18.9658 60.8476 18.9321 60.8364 18.8929 60.8364ZM18.7938 61.2233V62.1896H18.9919V61.2233H18.7938ZM19.6694 61.1972C19.5274 61.1972 19.4152 61.2476 19.3349 61.3485C19.2601 61.442 19.2227 61.5616 19.2227 61.7112C19.2227 61.8532 19.2582 61.971 19.333 62.0644C19.4115 62.1653 19.5199 62.2158 19.6601 62.2158C19.7778 62.2158 19.8769 62.1597 19.9554 62.0476V62.5597H20.1535V61.2233H19.9685V61.3392C19.9012 61.2439 19.8003 61.1972 19.6694 61.1972ZM19.6993 61.3579C19.7853 61.3579 19.8507 61.3915 19.8993 61.4607C19.9405 61.5205 19.961 61.6009 19.961 61.6999V61.7168C19.961 61.8196 19.9348 61.9037 19.8863 61.9672C19.8377 62.0252 19.7778 62.0551 19.705 62.0551C19.6078 62.0551 19.5349 62.0233 19.49 61.9597C19.447 61.8999 19.4265 61.8177 19.4265 61.7112C19.4265 61.6046 19.4451 61.5224 19.4844 61.4626C19.5293 61.3915 19.6022 61.3579 19.6993 61.3579ZM20.3772 61.2233V61.8252C20.3772 62.085 20.4931 62.2158 20.7267 62.2158C20.8482 62.2158 20.9491 62.1635 21.0314 62.0588V62.1896H21.2295V61.2233H21.0314V61.814C21.0145 61.885 20.9828 61.9429 20.9379 61.9859C20.893 62.027 20.8463 62.0495 20.794 62.0495C20.7174 62.0495 20.6613 62.0289 20.6276 61.9915C20.5921 61.9541 20.5753 61.8943 20.5753 61.8121V61.2233H20.3772ZM21.8652 61.1972C21.7232 61.1972 21.6092 61.2458 21.5269 61.3448C21.441 61.442 21.3998 61.5616 21.3998 61.7055C21.3998 61.8644 21.4447 61.9896 21.5344 62.0831C21.6167 62.1709 21.7307 62.2158 21.8727 62.2158C22.0017 62.2158 22.1082 62.1784 22.1923 62.1055C22.2596 62.0457 22.3026 61.9691 22.325 61.8794H22.1269C22.1007 61.9354 22.0727 61.9784 22.0391 62.0046C21.9961 62.0364 21.94 62.0532 21.8709 62.0532C21.7923 62.0532 21.7307 62.027 21.6858 61.9784C21.641 61.928 21.6167 61.8551 21.6092 61.7616H22.3419C22.34 61.5897 22.3007 61.4551 22.226 61.3579C22.1437 61.2495 22.0222 61.1972 21.8652 61.1972ZM21.8709 61.3598C22.0279 61.3598 22.1157 61.4439 22.1344 61.6121H21.6129C21.6241 61.5299 21.6522 61.4682 21.6933 61.4252C21.7381 61.3803 21.7961 61.3598 21.8709 61.3598Z" fill="black"/>
<path d="M8.55358 56.1651V58.5245H9.63085C9.882 58.5245 10.077 58.4783 10.2158 58.3857C10.3777 58.2734 10.4603 58.1016 10.4603 57.8636C10.4603 57.705 10.4206 57.5761 10.3413 57.4803C10.262 57.3845 10.1431 57.3217 9.98774 57.292C10.1067 57.249 10.1959 57.1829 10.262 57.097C10.3281 57.0045 10.3612 56.8921 10.3612 56.7599C10.3612 56.5782 10.2984 56.4361 10.1728 56.3303C10.0406 56.218 9.86217 56.1651 9.63085 56.1651H8.55358ZM8.91377 56.4625H9.54163C9.70025 56.4625 9.81921 56.489 9.89191 56.5451C9.96461 56.598 10.001 56.6839 10.001 56.8029C10.001 56.9285 9.96461 57.021 9.89191 57.0805C9.81921 57.1366 9.70025 57.1664 9.53502 57.1664H8.91377V56.4625ZM8.91377 57.4605H9.5912C9.76303 57.4605 9.89191 57.4902 9.97452 57.553C10.0571 57.6158 10.1001 57.7182 10.1001 57.857C10.1001 57.9925 10.0439 58.0916 9.93817 58.1544C9.85226 58.2007 9.73329 58.2271 9.58129 58.2271H8.91377V57.4605ZM11.5129 56.7698C11.2617 56.7698 11.0601 56.8558 10.9147 57.0309C10.7627 57.2027 10.69 57.4142 10.69 57.6687C10.69 57.9496 10.7693 58.171 10.928 58.3362C11.0734 58.4915 11.2749 58.5708 11.5261 58.5708C11.7541 58.5708 11.9424 58.5047 12.0911 58.3758C12.2101 58.2701 12.2861 58.1346 12.3258 57.976H11.9755C11.9292 58.0751 11.8797 58.1511 11.8202 58.1974C11.7442 58.2536 11.645 58.2833 11.5228 58.2833C11.384 58.2833 11.2749 58.237 11.1956 58.1511C11.1163 58.0619 11.0734 57.933 11.0601 57.7678H12.3555C12.3522 57.4638 12.2828 57.2259 12.1506 57.054C12.0052 56.8624 11.7904 56.7698 11.5129 56.7698ZM11.5228 57.0573C11.8003 57.0573 11.9557 57.206 11.9887 57.5034H11.0667C11.0866 57.358 11.1361 57.249 11.2088 57.173C11.2881 57.0937 11.3906 57.0573 11.5228 57.0573ZM13.4244 56.7698C13.2129 56.7698 13.041 56.8062 12.9155 56.8855C12.7701 56.9714 12.6775 57.1102 12.6412 57.2953L12.9882 57.325C13.008 57.2292 13.0576 57.1598 13.1369 57.1135C13.203 57.0739 13.2922 57.054 13.4012 57.054C13.659 57.054 13.7879 57.173 13.7879 57.4109V57.4803L13.4045 57.4902C13.1534 57.4968 12.9551 57.5464 12.8163 57.6455C12.6643 57.748 12.5883 57.8967 12.5883 58.0883C12.5883 58.2304 12.6412 58.3461 12.7502 58.4353C12.8494 58.5245 12.9882 58.5708 13.1666 58.5708C13.3186 58.5708 13.4508 58.5411 13.5632 58.4882C13.6623 58.4386 13.7449 58.3692 13.811 58.2833V58.5245H14.1348V57.434C14.1348 57.2259 14.082 57.0672 13.9795 56.9582C13.8606 56.8326 13.6755 56.7698 13.4244 56.7698ZM13.7879 57.7348V57.8339C13.7879 57.9661 13.7317 58.0784 13.6259 58.1676C13.5202 58.2569 13.3946 58.3031 13.2459 58.3031C13.1567 58.3031 13.084 58.28 13.0311 58.237C12.9749 58.1941 12.9485 58.1412 12.9485 58.0751C12.9485 57.8636 13.1071 57.7513 13.4277 57.7447L13.7879 57.7348ZM15.3289 56.7698C15.2231 56.7698 15.1306 56.7996 15.0513 56.8657C14.9852 56.9119 14.929 56.9813 14.8861 57.0739V56.8161H14.5358V58.5245H14.8861V57.6191C14.8861 57.4704 14.929 57.3481 15.0182 57.2556C15.1009 57.1697 15.1967 57.1267 15.3024 57.1267C15.3817 57.1267 15.4644 57.1366 15.5503 57.1631V56.8128C15.4908 56.7831 15.4148 56.7698 15.3289 56.7698ZM16.9946 56.1188V57.0705C16.8558 56.869 16.6807 56.7698 16.4725 56.7698C16.2279 56.7698 16.033 56.8591 15.8942 57.0375C15.762 57.2027 15.6992 57.4109 15.6992 57.6621C15.6992 57.9231 15.7653 58.1379 15.8975 58.3031C16.0396 58.4816 16.2378 58.5708 16.489 58.5708C16.7203 58.5708 16.8987 58.4849 17.0177 58.3197V58.5245H17.3449V56.1188H16.9946ZM16.5518 57.054C16.6807 57.054 16.7864 57.1036 16.8723 57.2093C16.9582 57.3217 17.0045 57.4704 17.0045 57.6554V57.6852C17.0045 57.857 16.9681 57.9958 16.8954 58.1049C16.8095 58.2238 16.6939 58.2866 16.5419 58.2866C16.37 58.2866 16.2412 58.2238 16.1618 58.1016C16.0924 57.9958 16.0594 57.8504 16.0594 57.6621C16.0594 57.4737 16.0958 57.3283 16.1685 57.2292C16.2511 57.1102 16.3799 57.054 16.5518 57.054ZM18.7977 56.1188C18.421 56.1188 18.1368 56.2411 17.9385 56.4923C17.7601 56.7137 17.6742 56.9978 17.6742 57.3481C17.6742 57.705 17.7568 57.9892 17.9286 58.2007C18.1236 58.4452 18.4144 58.5708 18.801 58.5708C19.0555 58.5708 19.2736 58.4981 19.4553 58.3527C19.6503 58.1974 19.7725 57.9826 19.8254 57.7083H19.4751C19.4289 57.8934 19.3463 58.0322 19.2273 58.1247C19.1149 58.2106 18.9695 58.2536 18.7977 58.2536C18.5333 58.2536 18.3384 58.171 18.2128 58.0057C18.0938 57.8504 18.0344 57.6323 18.0344 57.3481C18.0344 57.0739 18.0938 56.8558 18.2161 56.6971C18.345 56.522 18.5367 56.4361 18.7911 56.4361C18.9629 56.4361 19.1017 56.4724 19.2141 56.5484C19.3264 56.6244 19.4024 56.7434 19.4421 56.902H19.7924C19.756 56.6641 19.6503 56.4724 19.4784 56.3336C19.3 56.1882 19.072 56.1188 18.7977 56.1188ZM20.1573 56.1188V58.5245H20.5076V57.5662C20.5076 57.4175 20.544 57.2953 20.62 57.1994C20.6927 57.1036 20.7885 57.0573 20.9075 57.0573C21.0396 57.0573 21.1421 57.097 21.2082 57.1796C21.2677 57.2589 21.3007 57.3713 21.3007 57.5233V58.5245H21.651V57.4638C21.651 57.2391 21.6014 57.0672 21.5023 56.9516C21.3965 56.8293 21.2412 56.7698 21.0363 56.7698C20.9273 56.7698 20.8315 56.7897 20.7455 56.8359C20.6497 56.8822 20.5704 56.9582 20.5076 57.0573V56.1188H20.1573ZM22.2962 56.1321C22.2268 56.1321 22.1707 56.1519 22.1244 56.1982C22.0781 56.2411 22.055 56.2973 22.055 56.3667C22.055 56.4328 22.0781 56.4923 22.1244 56.5385C22.1707 56.5815 22.2268 56.6046 22.2962 56.6046C22.3623 56.6046 22.4218 56.5815 22.4681 56.5385C22.5143 56.4923 22.5408 56.4361 22.5408 56.3667C22.5408 56.2973 22.5176 56.2411 22.4714 56.1982C22.4251 56.1519 22.3656 56.1321 22.2962 56.1321ZM22.1211 56.8161V58.5245H22.4714V56.8161H22.1211ZM23.7056 56.7698C23.4412 56.7698 23.2363 56.8591 23.0876 57.0375C22.9488 57.2027 22.8794 57.4142 22.8794 57.672C22.8794 57.9363 22.9488 58.1478 23.0909 58.313C23.2363 58.4849 23.4379 58.5708 23.699 58.5708C23.9171 58.5708 24.0955 58.5146 24.2277 58.4056C24.3599 58.2932 24.4491 58.1214 24.4887 57.8934H24.1418C24.1087 58.1511 23.9633 58.2833 23.7023 58.2833C23.5502 58.2833 23.4379 58.2271 23.3619 58.1214C23.2793 58.0123 23.2396 57.8603 23.2396 57.6687C23.2396 57.477 23.2793 57.325 23.3652 57.2193C23.4478 57.1102 23.5602 57.0573 23.7056 57.0573C23.8245 57.0573 23.9204 57.0838 23.9931 57.1399C24.0658 57.1928 24.112 57.2787 24.1351 57.3944H24.4821C24.4491 57.1829 24.3632 57.0243 24.231 56.9185C24.0988 56.8194 23.9237 56.7698 23.7056 56.7698ZM24.7882 56.1188V58.5245H25.1385V57.9264L25.3334 57.7447L25.9481 58.5245H26.3975L25.5747 57.52L26.3314 56.8161H25.8787L25.1385 57.52V56.1188H24.7882ZM27.319 56.7698C27.0679 56.7698 26.8663 56.8558 26.7209 57.0309C26.5689 57.2027 26.4962 57.4142 26.4962 57.6687C26.4962 57.9496 26.5755 58.171 26.7341 58.3362C26.8795 58.4915 27.0811 58.5708 27.3322 58.5708C27.5603 58.5708 27.7486 58.5047 27.8973 58.3758C28.0163 58.2701 28.0923 58.1346 28.1319 57.976H27.7817C27.7354 58.0751 27.6858 58.1511 27.6263 58.1974C27.5503 58.2536 27.4512 58.2833 27.3289 58.2833C27.1901 58.2833 27.0811 58.237 27.0018 58.1511C26.9225 58.0619 26.8795 57.933 26.8663 57.7678H28.1617C28.1584 57.4638 28.089 57.2259 27.9568 57.054C27.8114 56.8624 27.5966 56.7698 27.319 56.7698ZM27.3289 57.0573C27.6065 57.0573 27.7618 57.206 27.7949 57.5034H26.8729C26.8927 57.358 26.9423 57.249 27.015 57.173C27.0943 57.0937 27.1968 57.0573 27.3289 57.0573ZM29.3264 56.7698C29.2206 56.7698 29.1248 56.7897 29.0389 56.8359C28.953 56.8789 28.8769 56.9417 28.8109 57.0276V56.8161H28.4606V58.5245H28.8109V57.4968C28.8241 57.358 28.8736 57.249 28.953 57.1697C29.0257 57.097 29.1149 57.0639 29.214 57.0639C29.4784 57.0639 29.6139 57.2093 29.6139 57.5001V58.5245H29.9641V57.4704C29.9641 57.0012 29.7493 56.7698 29.3264 56.7698Z" fill="black"/>
<path d="M8.78979 49.1965V24.8984" stroke="#00A0E9" stroke-width="0.560724" stroke-miterlimit="10"/>
<path d="M11.4063 49.1985V28.8255" stroke="#00A0E9" stroke-width="0.560724" stroke-miterlimit="10"/>
<path d="M14.0231 49.1978L14.0231 35.9273" stroke="#00A0E9" stroke-width="0.560724" stroke-miterlimit="10"/>
<path d="M16.6398 49.1981V33.0306" stroke="#00A0E9" stroke-width="0.560724" stroke-miterlimit="10"/>
<path d="M19.2566 49.1969V35.1788" stroke="#00A0E9" stroke-width="0.560724" stroke-miterlimit="10"/>
<path d="M21.8734 49.1992V34.9941" stroke="#00A0E9" stroke-width="0.560724" stroke-miterlimit="10"/>
<path d="M24.4901 49.1967V44.6174" stroke="#00A0E9" stroke-width="0.560724" stroke-miterlimit="10"/>
<path d="M27.1069 49.196V34.5237" stroke="#00A0E9" stroke-width="0.560724" stroke-miterlimit="10"/>
<path d="M29.7234 49.1977V32.0021" stroke="#00A0E9" stroke-width="0.560724" stroke-miterlimit="10"/>
<path d="M32.3403 49.1986V23.4053" stroke="#00A0E9" stroke-width="0.560724" stroke-miterlimit="10"/>
<path d="M34.9568 49.1967V28.7302" stroke="#00A0E9" stroke-width="0.560724" stroke-miterlimit="10"/>
<path d="M37.5736 49.1958V25.365" stroke="#00A0E9" stroke-width="0.560724" stroke-miterlimit="10"/>
<path d="M40.1904 49.1967V40.5989" stroke="#00A0E9" stroke-width="0.560724" stroke-miterlimit="10"/>
<path d="M42.8069 49.1991V33.6857" stroke="#00A0E9" stroke-width="0.560724" stroke-miterlimit="10"/>
<path d="M45.4239 49.1987V27.3305" stroke="#00A0E9" stroke-width="0.560724" stroke-miterlimit="10"/>
<path d="M48.0404 49.1975V28.1703" stroke="#00A0E9" stroke-width="0.560724" stroke-miterlimit="10"/>
<path d="M50.6572 49.196V34.5237" stroke="#00A0E9" stroke-width="0.560724" stroke-miterlimit="10"/>
<path d="M53.2739 49.196V38.4488" stroke="#00A0E9" stroke-width="0.560724" stroke-miterlimit="10"/>
<path d="M55.8907 49.1978V35.9273" stroke="#00A0E9" stroke-width="0.560724" stroke-miterlimit="10"/>
<path d="M58.5074 49.1974V28.2637" stroke="#00A0E9" stroke-width="0.560724" stroke-miterlimit="10"/>
<path d="M61.1241 49.1992V42.8444" stroke="#00A0E9" stroke-width="0.560724" stroke-miterlimit="10"/>
<path d="M10.0982 49.1987V27.3305" stroke="#00A0E9" stroke-width="0.560724" stroke-miterlimit="10"/>
<path d="M12.7147 49.1992V42.8444" stroke="#00A0E9" stroke-width="0.560724" stroke-miterlimit="10"/>
<path d="M15.3315 49.1974V30.8804" stroke="#00A0E9" stroke-width="0.560724" stroke-miterlimit="10"/>
<path d="M17.9479 49.1977V34.6189" stroke="#00A0E9" stroke-width="0.560724" stroke-miterlimit="10"/>
<path d="M20.5649 49.1969V35.1788" stroke="#00A0E9" stroke-width="0.560724" stroke-miterlimit="10"/>
<path d="M23.1815 49.1975V34.8055" stroke="#00A0E9" stroke-width="0.560724" stroke-miterlimit="10"/>
<path d="M25.7985 49.196V34.5237" stroke="#00A0E9" stroke-width="0.560724" stroke-miterlimit="10"/>
<path d="M28.4152 49.1991V33.6857" stroke="#00A0E9" stroke-width="0.560724" stroke-miterlimit="10"/>
<path d="M31.0317 49.1973V24.3385" stroke="#00A0E9" stroke-width="0.560724" stroke-miterlimit="10"/>
<path d="M33.6485 49.1978V29.2921" stroke="#00A0E9" stroke-width="0.560724" stroke-miterlimit="10"/>
<path d="M36.2653 49.1989V27.2372" stroke="#00A0E9" stroke-width="0.560724" stroke-miterlimit="10"/>
<path d="M38.882 49.1973V24.3385" stroke="#00A0E9" stroke-width="0.560724" stroke-miterlimit="10"/>
<path d="M41.4985 49.1964L41.4985 27.6085" stroke="#00A0E9" stroke-width="0.560724" stroke-miterlimit="10"/>
<path d="M44.1155 49.1975V41.3474" stroke="#00A0E9" stroke-width="0.560724" stroke-miterlimit="10"/>
<path d="M46.732 49.1964V27.6085" stroke="#00A0E9" stroke-width="0.560724" stroke-miterlimit="10"/>
<path d="M49.3488 49.1978V30.6005" stroke="#00A0E9" stroke-width="0.560724" stroke-miterlimit="10"/>
<path d="M51.9655 49.1974V37.5156" stroke="#00A0E9" stroke-width="0.560724" stroke-miterlimit="10"/>
<path d="M54.5823 49.1965V38.0755" stroke="#00A0E9" stroke-width="0.560724" stroke-miterlimit="10"/>
<path d="M57.199 49.198V31.8156" stroke="#00A0E9" stroke-width="0.560724" stroke-miterlimit="10"/>
<path d="M59.8156 49.1974V40.1324" stroke="#00A0E9" stroke-width="0.560724" stroke-miterlimit="10"/>
<path d="M62.4326 49.1975L62.4326 45.3659" stroke="#00A0E9" stroke-width="0.560724" stroke-miterlimit="10"/>
<path d="M13.1115 12.6239C12.9237 12.5446 12.7867 12.4361 12.7006 12.2982C12.6161 12.1587 12.5739 12.0062 12.5739 11.8408C12.5739 11.5582 12.6721 11.3247 12.8686 11.1404C13.0667 10.956 13.3476 10.8638 13.7111 10.8638C14.0712 10.8638 14.3503 10.956 14.5485 11.1404C14.7484 11.3247 14.8483 11.5582 14.8483 11.8408C14.8483 12.0165 14.8026 12.1733 14.7113 12.3112C14.62 12.4473 14.4916 12.5515 14.3262 12.6239C14.5364 12.7083 14.6958 12.8315 14.8044 12.9935C14.9146 13.1554 14.9698 13.3424 14.9698 13.5543C14.9698 13.9041 14.8578 14.1884 14.6338 14.4072C14.4115 14.626 14.1152 14.7354 13.7447 14.7354C13.4001 14.7354 13.1132 14.645 12.8841 14.464C12.6136 14.2504 12.4783 13.9575 12.4783 13.5853C12.4783 13.3803 12.5291 13.1925 12.6308 13.0219C12.7324 12.8496 12.8927 12.7169 13.1115 12.6239ZM13.2614 11.8925C13.2614 12.0372 13.3019 12.1501 13.3829 12.231C13.4656 12.312 13.575 12.3525 13.7111 12.3525C13.849 12.3525 13.9592 12.312 14.0419 12.231C14.1246 12.1483 14.166 12.0346 14.166 11.8899C14.166 11.7538 14.1246 11.6452 14.0419 11.5642C13.9609 11.4815 13.8533 11.4402 13.7189 11.4402C13.5793 11.4402 13.4682 11.4815 13.3855 11.5642C13.3028 11.6469 13.2614 11.7563 13.2614 11.8925ZM13.1942 13.5155C13.1942 13.7154 13.245 13.8713 13.3467 13.9833C13.4501 14.0953 13.5784 14.1513 13.7318 14.1513C13.8817 14.1513 14.0057 14.0979 14.104 13.9911C14.2022 13.8825 14.2513 13.7266 14.2513 13.5233C14.2513 13.3458 14.2013 13.2037 14.1014 13.0968C14.0014 12.9883 13.8748 12.934 13.7214 12.934C13.544 12.934 13.4113 12.9952 13.3234 13.1175C13.2373 13.2398 13.1942 13.3725 13.1942 13.5155ZM17.8877 13.9937V14.6682H15.3419C15.3695 14.4132 15.4522 14.172 15.59 13.9446C15.7279 13.7154 16.0001 13.4121 16.4067 13.0348C16.7341 12.7298 16.9348 12.5231 17.0089 12.4145C17.1089 12.2646 17.1588 12.1165 17.1588 11.97C17.1588 11.808 17.1149 11.684 17.027 11.5978C16.9409 11.51 16.8211 11.466 16.6678 11.466C16.5161 11.466 16.3955 11.5117 16.3059 11.603C16.2163 11.6943 16.1647 11.8459 16.1509 12.0579L15.4272 11.9855C15.4703 11.5858 15.6055 11.2989 15.833 11.1249C16.0604 10.9508 16.3447 10.8638 16.6859 10.8638C17.0598 10.8638 17.3535 10.9646 17.5672 11.1662C17.7808 11.3678 17.8877 11.6185 17.8877 11.9183C17.8877 12.0889 17.8566 12.2517 17.7946 12.4068C17.7343 12.5601 17.6378 12.7212 17.5051 12.8901C17.4173 13.0021 17.2588 13.1632 17.0296 13.3734C16.8004 13.5836 16.6548 13.7231 16.5928 13.7921C16.5325 13.861 16.4834 13.9282 16.4455 13.9937H17.8877ZM18.5183 13.942H19.2445V14.4615C19.2445 14.6717 19.2264 14.8371 19.1902 14.9577C19.1541 15.08 19.0851 15.1894 18.9835 15.2859C18.8835 15.3824 18.756 15.4582 18.601 15.5133L18.4588 15.2135C18.6053 15.1653 18.7095 15.099 18.7716 15.0145C18.8336 14.9301 18.8663 14.8147 18.8698 14.6682H18.5183V13.942ZM19.8286 13.6628L20.5316 13.5776C20.554 13.7567 20.6143 13.8937 20.7125 13.9885C20.8107 14.0833 20.9296 14.1306 21.0692 14.1306C21.2191 14.1306 21.3448 14.0738 21.4465 13.9601C21.5499 13.8463 21.6016 13.693 21.6016 13.5C21.6016 13.3174 21.5525 13.1727 21.4543 13.0658C21.356 12.959 21.2363 12.9056 21.095 12.9056C21.002 12.9056 20.8908 12.9237 20.7616 12.9599L20.8417 12.368C21.0382 12.3732 21.1881 12.331 21.2914 12.2414C21.3948 12.1501 21.4465 12.0294 21.4465 11.8795C21.4465 11.752 21.4086 11.6504 21.3328 11.5746C21.257 11.4988 21.1562 11.4609 21.0304 11.4609C20.9063 11.4609 20.8004 11.5039 20.7125 11.5901C20.6246 11.6762 20.5712 11.802 20.5523 11.9674L19.8829 11.8537C19.9294 11.6245 19.9992 11.4419 20.0922 11.3058C20.187 11.1679 20.3179 11.0603 20.4851 10.9827C20.6539 10.9035 20.8426 10.8638 21.0511 10.8638C21.4077 10.8638 21.6938 10.9776 21.9091 11.205C22.0866 11.3911 22.1753 11.6013 22.1753 11.8356C22.1753 12.1681 21.9936 12.4335 21.63 12.6316C21.8471 12.6782 22.0203 12.7824 22.1495 12.9444C22.2804 13.1063 22.3459 13.3019 22.3459 13.531C22.3459 13.8636 22.2244 14.147 21.9815 14.3813C21.7385 14.6157 21.4362 14.7328 21.0743 14.7328C20.7315 14.7328 20.4472 14.6346 20.2215 14.4382C19.9957 14.24 19.8648 13.9816 19.8286 13.6628ZM24.2248 14.6682V13.9058H22.6741V13.27L24.3179 10.8638H24.9278V13.2674H25.3982V13.9058H24.9278V14.6682H24.2248ZM24.2248 13.2674V11.9726L23.3539 13.2674H24.2248ZM25.7471 11.6056V10.931H28.2308V11.4583C28.0258 11.6599 27.8173 11.9493 27.6054 12.3267C27.3934 12.704 27.2315 13.1055 27.1195 13.531C27.0092 13.9549 26.9549 14.334 26.9566 14.6682H26.2562C26.2683 14.1444 26.376 13.6103 26.5793 13.0658C26.7843 12.5214 27.0574 12.0346 27.3986 11.6056H25.7471Z" fill="black"/>
<path d="M9.40199 10.4397C9.40199 10.2573 9.54983 10.1095 9.73219 10.1095C9.91456 10.1095 10.0624 10.2573 10.0624 10.4397V10.6845C10.3531 10.7271 10.5838 10.8228 10.7546 10.9714C10.896 11.0936 10.9981 11.2399 11.0607 11.4101C11.1381 11.6204 10.9541 11.8141 10.7303 11.824C10.5243 11.833 10.3647 11.6708 10.2407 11.5061C10.216 11.4733 10.1883 11.445 10.1576 11.4211C10.0507 11.335 9.88964 11.2919 9.67427 11.2919C9.452 11.2919 9.27798 11.3376 9.1522 11.4289C9.07122 11.4875 9.03073 11.5658 9.03073 11.6641C9.03073 11.7537 9.06864 11.8303 9.14445 11.8941C9.24093 11.9751 9.47526 12.0595 9.84743 12.1474C10.2196 12.2352 10.4944 12.3266 10.6719 12.4213C10.8511 12.5144 10.9906 12.6427 11.0906 12.8064C11.1922 12.9684 11.2431 13.1691 11.2431 13.4086C11.2431 13.6257 11.1828 13.829 11.0621 14.0185C10.9415 14.2081 10.771 14.3493 10.5504 14.4424C10.4098 14.5006 10.2471 14.5403 10.0624 14.5614V14.7323C10.0624 14.9147 9.91456 15.0625 9.73219 15.0625C9.54983 15.0625 9.40199 14.9147 9.40199 14.7323V14.5605C9.07771 14.5204 8.81783 14.4165 8.62238 14.2486C8.44961 14.099 8.32366 13.9037 8.24453 13.6629C8.17723 13.458 8.33868 13.2622 8.55329 13.2414C8.7529 13.222 8.92277 13.3656 9.01418 13.5441C9.05837 13.6304 9.113 13.7015 9.17805 13.7575C9.31589 13.8747 9.50111 13.9332 9.73371 13.9332C9.9801 13.9332 10.1653 13.8816 10.2894 13.7782C10.4152 13.6731 10.478 13.5507 10.478 13.4112C10.478 13.3216 10.4513 13.2458 10.3979 13.1837C10.3462 13.12 10.2549 13.0649 10.124 13.0183C10.0344 12.9873 9.8302 12.9322 9.51145 12.8529C9.10137 12.7513 8.81363 12.6264 8.64823 12.4782C8.41562 12.2697 8.29932 12.0155 8.29932 11.7157C8.29932 11.5228 8.35359 11.3427 8.46214 11.1756C8.57241 11.0067 8.73007 10.8784 8.9351 10.7905C9.07218 10.7322 9.22781 10.6933 9.40199 10.6737V10.4397Z" fill="#F39800"/>
<rect x="45.3303" y="55.6462" width="17.7563" height="6.54178" rx="0.93454" fill="#1DB350"/>
<path d="M50.8268 58.2202V60.5797H51.187V59.5222H52.3601V59.2149H51.187V58.5275H52.4295V58.2202H50.8268ZM53.4375 58.825C53.1864 58.825 52.9848 58.9109 52.8394 59.086C52.6874 59.2578 52.6147 59.4693 52.6147 59.7238C52.6147 60.0047 52.694 60.2261 52.8526 60.3913C52.998 60.5466 53.1996 60.6259 53.4508 60.6259C53.6788 60.6259 53.8671 60.5598 54.0158 60.4309C54.1348 60.3252 54.2108 60.1897 54.2505 60.0311H53.9002C53.8539 60.1302 53.8043 60.2062 53.7449 60.2525C53.6689 60.3087 53.5697 60.3384 53.4475 60.3384C53.3087 60.3384 53.1996 60.2922 53.1203 60.2062C53.041 60.117 52.998 59.9881 52.9848 59.8229H54.2802C54.2769 59.5189 54.2075 59.281 54.0753 59.1091C53.9299 58.9175 53.7151 58.825 53.4375 58.825ZM53.4475 59.1124C53.725 59.1124 53.8804 59.2611 53.9134 59.5586H52.9914C53.0113 59.4132 53.0608 59.3041 53.1335 59.2281C53.2128 59.1488 53.3153 59.1124 53.4475 59.1124ZM54.6188 58.174V60.5797H54.969V58.174H54.6188ZM55.6531 58.1872C55.5837 58.1872 55.5275 58.207 55.4812 58.2533C55.435 58.2962 55.4118 58.3524 55.4118 58.4218C55.4118 58.4879 55.435 58.5474 55.4812 58.5936C55.5275 58.6366 55.5837 58.6597 55.6531 58.6597C55.7192 58.6597 55.7786 58.6366 55.8249 58.5936C55.8712 58.5474 55.8976 58.4912 55.8976 58.4218C55.8976 58.3524 55.8745 58.2962 55.8282 58.2533C55.7819 58.207 55.7225 58.1872 55.6531 58.1872ZM55.4779 58.8712V60.5797H55.8282V58.8712H55.4779ZM56.9401 58.825C56.7352 58.825 56.5667 58.8679 56.4378 58.9571C56.309 59.0431 56.2462 59.1653 56.2462 59.3206C56.2462 59.466 56.3123 59.5817 56.4445 59.6643C56.5238 59.7172 56.6659 59.7667 56.8674 59.813C57.0426 59.8527 57.1582 59.8857 57.2111 59.9121C57.3102 59.9584 57.3631 60.0245 57.3631 60.1071C57.3631 60.2591 57.2243 60.3384 56.9533 60.3384C56.8212 60.3384 56.7286 60.3153 56.6692 60.2723C56.6097 60.2261 56.5667 60.1435 56.5469 60.0278H56.2032C56.2429 60.4243 56.494 60.6259 56.9633 60.6259C57.4689 60.6259 57.7233 60.4442 57.7233 60.084C57.7233 59.932 57.6539 59.813 57.5184 59.7271C57.4259 59.6676 57.2805 59.6114 57.0855 59.5652C56.9137 59.5222 56.8013 59.4892 56.7419 59.4627C56.6493 59.4198 56.6031 59.3702 56.6031 59.3107C56.6031 59.2446 56.6328 59.1918 56.6956 59.1587C56.7485 59.1257 56.8278 59.1124 56.9335 59.1124C57.0525 59.1124 57.145 59.1323 57.2045 59.1719C57.2607 59.2083 57.3003 59.2711 57.3268 59.3636H57.6671C57.6275 59.0034 57.3829 58.825 56.9401 58.825Z" fill="white"/>
<rect x="0.565796" y="0.509277" width="70.0905" height="70.0905" rx="9.95378" stroke="#D8D8D8"/>
</svg>
