<svg width="15" height="15" viewBox="0 0 15 15" fill="none" xmlns="http://www.w3.org/2000/svg">
<path fill-rule="evenodd" clip-rule="evenodd" d="M5.06713 8.65594C4.66416 8.65594 4.33678 8.32856 4.33678 7.92558C4.33678 7.52379 4.66416 7.19641 5.06713 7.19641C5.47011 7.19641 5.79749 7.52379 5.79749 7.92558C5.79749 8.32856 5.47011 8.65594 5.06713 8.65594ZM7.90642 8.65594C7.50345 8.65594 7.17607 8.32856 7.17607 7.92558C7.17607 7.52379 7.50345 7.19641 7.90642 7.19641C8.3094 7.19641 8.63678 7.52379 8.63678 7.92558C8.63678 8.32856 8.3094 8.65594 7.90642 8.65594ZM10.0154 7.92558C10.0154 8.32856 10.3428 8.65594 10.7458 8.65594C11.1487 8.65594 11.4761 8.32856 11.4761 7.92558C11.4761 7.52379 11.1487 7.19641 10.7458 7.19641C10.3428 7.19641 10.0154 7.52379 10.0154 7.92558Z" fill="#837B98"/>
<path fill-rule="evenodd" clip-rule="evenodd" d="M7.77011 1.53662C4.13886 1.53662 1.50761 4.50295 1.50761 7.79601C1.50761 8.84759 1.81386 9.92984 2.35136 10.9188C2.45136 11.0822 2.46386 11.2881 2.39511 11.4828L1.97636 12.8849C1.88261 13.2229 2.17011 13.4727 2.48886 13.3725L3.75136 12.9976C4.09511 12.8849 4.36386 13.0282 4.68261 13.2229C5.59511 13.7606 6.73261 14.0366 7.75761 14.0366C10.8576 14.0366 14.0076 11.6393 14.0076 7.77723C14.0076 4.44661 11.3201 1.53662 7.77011 1.53662Z" stroke="#837B98" stroke-width="1.5" stroke-linecap="round" stroke-linejoin="round"/>
</svg>
