<svg width="13" height="14" viewBox="0 0 13 14" fill="none" xmlns="http://www.w3.org/2000/svg">
<path d="M10.7387 5.68256C10.7387 5.68256 10.3994 9.89193 10.2025 11.6651C10.1087 12.5119 9.5856 13.0082 8.72873 13.0238C7.0981 13.0532 5.4656 13.0551 3.8356 13.0207C3.01123 13.0038 2.49685 12.5013 2.40498 11.6694C2.20685 9.88068 1.86935 5.68256 1.86935 5.68256" stroke="#837B98" stroke-width="1.5" stroke-linecap="round" stroke-linejoin="round"/>
<path d="M11.6034 3.66479H1.00461" stroke="#837B98" stroke-width="1.5" stroke-linecap="round" stroke-linejoin="round"/>
<path d="M9.56122 3.665C9.07059 3.665 8.64809 3.31812 8.55184 2.8375L8.39997 2.0775C8.30622 1.72687 7.98872 1.48438 7.62684 1.48438H4.98122C4.61934 1.48438 4.30184 1.72687 4.20809 2.0775L4.05622 2.8375C3.95997 3.31812 3.53747 3.665 3.04684 3.665" stroke="#837B98" stroke-width="1.5" stroke-linecap="round" stroke-linejoin="round"/>
</svg>
