<svg width="31" height="31" viewBox="0 0 31 31" fill="none" xmlns="http://www.w3.org/2000/svg">
<rect x="0.442383" y="0.665527" width="30" height="30" rx="4" fill="white"/>
<path fill-rule="evenodd" clip-rule="evenodd" d="M15.4422 16.8317C16.0866 16.8317 16.6089 16.3094 16.6089 15.665C16.6089 15.0207 16.0866 14.4984 15.4422 14.4984C14.7979 14.4984 14.2756 15.0207 14.2756 15.665C14.2756 16.3094 14.7979 16.8317 15.4422 16.8317Z" fill="#422F8A" stroke="#422F8A" stroke-opacity="0.87" stroke-width="1.16667" stroke-linecap="round" stroke-linejoin="round"/>
<path fill-rule="evenodd" clip-rule="evenodd" d="M20.1091 16.8317C20.7534 16.8317 21.2757 16.3094 21.2757 15.665C21.2757 15.0207 20.7534 14.4984 20.1091 14.4984C19.4647 14.4984 18.9424 15.0207 18.9424 15.665C18.9424 16.3094 19.4647 16.8317 20.1091 16.8317Z" fill="#422F8A" stroke="#422F8A" stroke-opacity="0.87" stroke-width="1.16667" stroke-linecap="round" stroke-linejoin="round"/>
<path fill-rule="evenodd" clip-rule="evenodd" d="M10.7759 16.8317C11.4202 16.8317 11.9425 16.3094 11.9425 15.665C11.9425 15.0207 11.4202 14.4984 10.7759 14.4984C10.1315 14.4984 9.60919 15.0207 9.60919 15.665C9.60919 16.3094 10.1315 16.8317 10.7759 16.8317Z" fill="#422F8A" stroke="#422F8A" stroke-opacity="0.87" stroke-width="1.16667" stroke-linecap="round" stroke-linejoin="round"/>
</svg>
